<?xml version="1.0" encoding="utf-8"?><svg version="1.1" xmlns="http://www.w3.org/2000/svg" xmlns:xlink="http://www.w3.org/1999/xlink" x="0px" y="0px" viewBox="0 0 640 640" xml:space="preserve"><style type="text/css">.st0{fill:url(#b);}.st1{fill:#FFFFFF;}.st2{fill:url(#b);}.st3{fill:url(#b);}</style><linearGradient id="b" gradientUnits="userSpaceOnUse" x1="-53" y1="693" x2="70" y2="570"><stop offset="0" style="stop-color:#2F75CF"/><stop offset="1" style="stop-color:#1D559C"/></linearGradient><path class="st0" d="M529,293.7c-100.4,0-182.1-81.8-182.1-182.4c0-30.9,7.9-61.5,22.9-88.5c2.7-4.8,7.7-7.7,13.1-7.7c0.5,0,1.1,0,1.6,0.1c14.1,1.5,28.3,4.2,42.2,7.9c4.7,1.3,8.5,4.7,10.2,9.3c1.7,4.6,1,9.7-1.8,13.7c-13.3,19.2-20.4,41.7-20.4,65.1c0,63.1,51.2,114.4,114.2,114.4c23.3,0,45.8-7.1,65-20.4c2.5-1.8,5.5-2.7,8.6-2.7c1.7,0,3.5,0.3,5.2,0.9c4.6,1.7,8.1,5.5,9.3,10.2c3.7,13.9,6.4,28.2,7.9,42.3c0.7,6-2.3,11.8-7.6,14.7C590.4,285.7,559.8,293.7,529,293.7z"/><path class="st1" d="M382.9,30.1c11.2,1.2,24.9,3.5,40,7.5c-14.5,20.9-23,46.3-23,73.7c0,71.3,57.9,129.4,129.2,129.4c27.3,0,52.7-8.5,73.5-23.1c4,15.1,6.3,28.8,7.5,40c-24,13.4-51.7,21.1-81,21.1c-92.1,0-167.1-75.1-167.1-167.4C361.9,81.8,369.5,54.1,382.9,30.1 M382.9,0.1c-10.8,0-20.9,5.8-26.2,15.4c-16.2,29.2-24.8,62.3-24.8,95.8c0,108.8,88.4,197.4,197.1,197.4c33.4,0,66.5-8.6,95.7-24.9c10.5-5.9,16.5-17.5,15.2-29.5c-1.6-14.9-4.4-29.8-8.3-44.5c-2.5-9.4-9.5-17.1-18.7-20.4c-3.3-1.2-6.8-1.8-10.3-1.8c-6.1,0-12,1.8-17.1,5.4c-16.6,11.6-36.1,17.7-56.4,17.7c-54.7,0-99.2-44.6-99.2-99.4c0-20.3,6.1-39.9,17.7-56.6c5.6-8,6.9-18.3,3.5-27.4c-3.4-9.2-11-16.1-20.4-18.7c-14.7-3.9-29.6-6.7-44.5-8.4C385,0.1,384,0.1,382.9,0.1L382.9,0.1z"/><path class="st2" d="M50.9,626.1c-6.3,0-15.8-1.9-24.9-11c-18.6-18.7-10.2-40.7,0-50.9l30.2-30.3l-11.7-11.7c-4.6-4.6-5.7-11.7-2.7-17.5l63-122.6c0.7-1.4,1.6-2.6,2.7-3.7L134,352l-4.3-4.3c-4.6-4.6-5.7-11.5-2.8-17.3l74.1-148.6c0.7-1.4,1.7-2.8,2.8-3.9l26.5-26.5l-0.5-0.5c-4.7-4.7-5.7-11.9-2.6-17.7l26-48.3c1-1.9,2.5-3.6,4.3-5l62.2-46.1c2.6-2,5.8-2.9,8.9-2.9c3.1,0,6.1,0.9,8.8,2.8c5.3,3.8,7.5,10.6,5.5,16.8c-6.4,19.6-9.6,40-9.6,60.7c0,108.1,87.8,196,195.6,196c20.7,0,41-3.2,60.6-9.6c1.5-0.5,3.1-0.7,4.7-0.7c4.7,0,9.3,2.2,12.2,6.2c3.8,5.3,3.8,12.4-0.1,17.7l-46,62.3c-1.3,1.8-3,3.2-4.9,4.3l-48.2,26c-2.2,1.2-4.7,1.8-7.1,1.8c-3.9,0-7.7-1.5-10.6-4.4l-0.5-0.5l-26.5,26.5c-1.1,1.1-2.5,2.1-3.9,2.8l-148.3,74.3c-2.1,1.1-4.4,1.6-6.7,1.6c-3.9,0-7.7-1.5-10.6-4.4l-4.2-4.2l-26.5,26.5c-1.1,1.1-2.4,2-3.7,2.7l-122.3,63.1c-2.2,1.1-4.5,1.7-6.9,1.7c-3.9,0-7.7-1.5-10.6-4.4L107,584.9l-30.2,30.2C75,617,65.2,626.1,50.9,626.1z"/><path class="st1" d="M328.7,45.9c-6.7,20.6-10.4,42.6-10.4,65.4c0,116.4,94.5,211,210.6,211c22.8,0,44.7-3.7,65.2-10.4l-46,62.3l-48.2,26l-11.1-11.1l-37.1,37.1l-148.3,74.3l-14.8-14.9l-37.1,37.1l-122.3,63.1L107,563.7l-40.8,40.9c0,0-6.6,6.6-15.4,6.6c-4.4,0-9.3-1.7-14.3-6.6c-14.8-14.9,0-29.7,0-29.7c40.8-40.9,40.8-40.9,40.8-40.9l-22.2-22.3l63-122.6l37.1-37.1l-14.8-14.9l74.1-148.6l37.1-37.1l-11.1-11.1l26-48.3L328.7,45.9 M594.2,311.9L594.2,311.9 M328.7,15.9c-6.3,0-12.6,2-17.9,5.9l-62.2,46.1c-3.6,2.6-6.5,6-8.6,9.9l-26,48.3c-3.9,7.2-4.5,15.4-2.3,22.8l-18.4,18.5c-2.3,2.3-4.2,4.9-5.6,7.8l-74.1,148.6c-4.4,8.8-4.1,18.9,0.2,27.3l-16.9,16.9c-2.2,2.2-4,4.7-5.4,7.5l-63,122.6c-6,11.6-3.8,25.7,5.4,34.9l1.1,1.1l-19.6,19.7c-2,2-9,9.6-12.8,21c-6.1,18.2-1.4,36.9,12.8,51.1c12.7,12.7,26.3,15.4,35.5,15.4c20.2,0,34-12.8,36.6-15.4l19.5-19.6l1,1c5.8,5.8,13.5,8.8,21.2,8.8c4.7,0,9.4-1.1,13.7-3.3l122.3-63.1c2.8-1.4,5.3-3.3,7.5-5.5l16.8-16.9c4.3,2.2,9.1,3.4,13.8,3.4c4.6,0,9.2-1,13.4-3.2l148.3-74.3c2.9-1.4,5.5-3.3,7.8-5.6l18.4-18.4c2.8,0.8,5.7,1.2,8.6,1.2c4.9,0,9.7-1.2,14.2-3.6l48.2-26c3.9-2.1,7.3-5,9.9-8.6l45.7-62c3.8-5,6.1-11.3,6.1-18.1c0-15.9-12.3-28.8-27.9-29.9c-0.7-0.1-1.4-0.1-2.1-0.1c-1,0-1.9,0-2.9,0.1c-2.5,0.2-4.8,0.8-7.1,1.6c-17.8,5.8-36.4,8.7-55.3,8.7c-99.6,0-180.6-81.2-180.6-181c0-19.1,3-38,8.9-56.1c4-12.4-0.4-26-11-33.6C341,17.8,334.8,15.9,328.7,15.9L328.7,15.9z M328.7,75.9L328.7,75.9L328.7,75.9L328.7,75.9z"/><path class="st3" d="M529,214.6c-56.9,0-103.1-46.3-103.1-103.3c0-25.6,9.4-50.1,26.6-69.2c2.9-3.2,7-5,11.1-5c2.1,0,4.2,0.4,6.2,1.3c12.9,5.8,25.3,12.7,36.9,20.4c4,2.7,6.5,7.1,6.7,12c0.2,4.8-2,9.5-5.8,12.4c-8.8,6.8-13.8,17-13.8,28c0,19.5,15.8,35.3,35.2,35.3c11,0,21.1-5,27.9-13.8c2.8-3.7,7.2-5.9,11.9-5.9c0.2,0,0.4,0,0.5,0c4.8,0.2,9.3,2.7,12,6.7c7.7,11.7,14.6,24.1,20.4,37c2.7,5.9,1.2,12.9-3.6,17.3C579,205.1,554.5,214.6,529,214.6z"/><path class="st1" d="M463.5,52.1c11.5,5.2,23.2,11.5,34.8,19.3c-11.9,9.2-19.6,23.6-19.6,39.8c0,27.7,22.5,50.3,50.2,50.3c16.2,0,30.6-7.7,39.8-19.7c7.7,11.7,14,23.4,19.2,34.9c-15.6,14.1-36.3,22.8-59,22.8c-48.6,0-88.2-39.6-88.2-88.3C440.8,88.5,449.4,67.8,463.5,52.1 M463.5,22.1c-8.3,0-16.5,3.5-22.3,9.9c-19.6,21.8-30.4,49.9-30.4,79.2c0,65.2,53,118.3,118.2,118.3c29.3,0,57.4-10.8,79.1-30.5c9.7-8.7,12.6-22.7,7.2-34.6c-6.2-13.6-13.4-26.7-21.5-39.1c-5.3-8.1-14.3-13.1-24-13.5c-0.4,0-0.7,0-1.1,0c-9.3,0-18.1,4.3-23.8,11.7c-3.9,5.1-9.7,8-16,8c-11.1,0-20.2-9.1-20.2-20.3c0-6.3,2.9-12.2,8-16.1c7.7-5.9,12-15.2,11.6-24.8c-0.4-9.7-5.3-18.6-13.4-23.9c-12.3-8.1-25.4-15.4-39-21.6C471.9,23,467.7,22.1,463.5,22.1L463.5,22.1z"/></svg>