<?xml version="1.0" encoding="utf-8"?>
<!-- Generator: Adobe Illustrator 22.1.0, SVG Export Plug-In . SVG Version: 6.00 Build 0)  -->
<svg version="1.1" id="图层_1" xmlns="http://www.w3.org/2000/svg" xmlns:xlink="http://www.w3.org/1999/xlink" x="0px" y="0px"
	 viewBox="0 0 612 612" style="enable-background:new 0 0 612 612;" xml:space="preserve">
<style type="text/css">
	.st0{fill:#00AEEF;}
	.st1{fill:none;}
	.st2{fill:#FFFFFF;}
</style>
<g>
	<polygon class="st0" points="149,0 134,0 134,15 149,15 	"/>
	<polygon class="st0" points="269,15 269,0 239,0 239,15 	"/>
	<polygon class="st0" points="433,0 433,15 448,15 448,0 	"/>
	<path class="st0" d="M508,0v104h104V0H508z M597,90h-75V15h75V90z"/>
	<polygon class="st0" points="463,15 448,15 448,30 463,30 	"/>
	<polygon class="st0" points="448,30 433,30 433,45 448,45 	"/>
	<polygon class="st0" points="493,45 493,0 478,0 478,30 463,30 463,45 	"/>
	<rect x="537" y="30" class="st0" width="45" height="45"/>
	<polygon class="st0" points="179,45 164,45 164,60 179,60 	"/>
	<path class="st0" d="M194,60h-15v45h-15v14h45v30h15v15h45v-15h15v-15h-30v-15h30V90h-15v14h-15V90h-15v15h-15V90h15V75h15V60h15
		v15h30v15v15h14V90h15v15h-15v44h30v-15h30v-15h15v-14h-15V90h-15v15h-15V90h15V60h15V45h30v30h15V60h15V45h-15V30h-15V0h-15v30
		h-15V0h-15v15h-30V0h-30v15h-29v30h-15h-15v15h-15v15h-15v30h-15V75h15V30h15v15h15V15h-30V0h-15v15h-15V0h-15v30h15v15h15V60
		L194,60z M298,30h30v15h15V30h15v15h-15v30h-30V60h-15V30z M224,119h15v15h-15V119L224,119z"/>
	<polygon class="st0" points="313,60 328,60 328,45 313,45 	"/>
	<rect x="30" y="30" class="st0" width="45" height="45"/>
	<polygon class="st0" points="134,60 119,60 119,75 134,75 	"/>
	<polygon class="st0" points="388,75 388,60 373,60 373,75 	"/>
	<polygon class="st0" points="448,75 448,60 433,60 433,75 	"/>
	<polygon class="st0" points="478,75 463,75 463,90 478,90 	"/>
	<path class="st0" d="M104,104V0H0v104H104z M15,15h75v75H15V15z"/>
	<rect x="149" y="60" class="st0" width="15" height="45"/>
	<polygon class="st0" points="403,90 388,90 388,105 403,105 	"/>
	<polygon class="st0" points="418,90 418,105 433,105 433,90 	"/>
	<polygon class="st0" points="493,105 493,90 478,90 478,105 	"/>
	<polygon class="st0" points="149,105 134,105 134,90 119,90 119,119 89,119 89,134 149,134 	"/>
	<polygon class="st0" points="448,134 478,134 478,149 493,149 493,134 523,134 523,119 478,119 478,105 463,105 463,90 448,90 
		448,105 433,105 433,119 448,119 	"/>
	<polygon class="st0" points="373,134 373,149 388,149 388,164 403,164 403,149 448,149 448,134 433,134 433,119 418,119 418,134 
		403,134 403,119 388,119 388,134 	"/>
	<polygon class="st0" points="597,134 567,134 567,164 612,164 612,149 597,149 	"/>
	<polygon class="st0" points="60,149 60,119 30,119 30,134 0,134 0,164 30,164 30,149 45,149 45,194 60,194 60,164 105,164 105,149 
			"/>
	<polygon class="st0" points="314,149 299,149 284,149 284,164 299,164 299,179 314,179 314,164 	"/>
	<polygon class="st0" points="358,164 373,164 373,149 358,149 	"/>
	<polygon class="st0" points="493,149 493,164 523,164 523,179 537,179 537,194 552,194 567,194 567,179 552,179 552,164 537,164 
		537,149 552,149 552,134 552,119 537,119 537,134 522,134 522,149 	"/>
	<polygon class="st0" points="209,179 209,194 224,194 224,179 224,164 209,164 	"/>
	<polygon class="st0" points="343,164 328,164 328,179 343,179 	"/>
	<polygon class="st0" points="373,179 388,179 388,164 373,164 	"/>
	<polygon class="st0" points="448,164 448,179 463,179 463,164 	"/>
	<polygon class="st0" points="478,179 463,179 463,194 478,194 478,209 463,209 463,224 493,224 493,164 478,164 	"/>
	<polygon class="st0" points="328,179 313,179 313,194 328,194 	"/>
	<polygon class="st0" points="507,194 522,194 522,179 507,179 	"/>
	<polygon class="st0" points="597,194 612,194 612,179 597,179 	"/>
	<polygon class="st0" points="15,194 15,179 0,179 0,209 30,209 30,194 	"/>
	<polygon class="st0" points="179,194 179,209 194,209 194,194 	"/>
	<polygon class="st0" points="448,194 448,209 463,209 463,194 	"/>
	<polygon class="st0" points="582,209 582,194 567,194 567,209 	"/>
	<polygon class="st0" points="90,209 90,224 105,224 105,209 	"/>
	<polygon class="st0" points="224,224 239,224 239,209 254,209 254,194 254,179 239,179 239,194 224,194 224,209 	"/>
	<polygon class="st0" points="433,194 418,194 418,209 403,209 403,194 373,194 373,224 418,224 418,239 433,239 	"/>
	<polygon class="st0" points="582,209 582,224 597,224 597,239 612,239 612,209 	"/>
	<polygon class="st0" points="358,239 373,239 373,224 358,224 	"/>
	<polygon class="st0" points="448,239 433,239 433,254 463,254 463,224 448,224 	"/>
	<polygon class="st0" points="90,254 105,254 105,239 90,239 	"/>
	<polygon class="st0" points="403,254 418,254 418,239 403,239 	"/>
	<polygon class="st0" points="567,239 567,224 552,224 552,209 507,209 507,239 522,239 522,224 537,224 537,239 552,239 552,254 
		552,269 582,269 582,254 597,254 597,239 	"/>
	<polygon class="st0" points="134,254 119,254 119,269 134,269 	"/>
	<polygon class="st0" points="224,269 239,269 239,254 239,239 224,239 224,254 	"/>
	<polygon class="st0" points="358,254 343,254 343,269 358,269 	"/>
	<polygon class="st0" points="388,254 373,254 373,269 388,269 	"/>
	<rect x="463" y="254" class="st0" width="45" height="15"/>
	<polygon class="st0" points="537,254 522,254 522,269 537,269 	"/>
	<polygon class="st0" points="612,269 612,254 597,254 597,269 	"/>
	<polygon class="st0" points="119,284 119,269 75,269 75,209 30,209 30,224 60,224 60,239 30,239 30,224 15,224 15,269 45,269 
		45,284 75,284 75,299 90,299 90,284 	"/>
	<polygon class="st0" points="149,284 149,269 134,269 134,284 	"/>
	<polygon class="st0" points="194,284 194,239 224,239 224,224 209,224 209,209 194,209 194,224 179,224 179,209 164,209 164,224 
		149,224 149,209 134,209 134,194 119,194 119,179 149,179 149,209 164,209 164,194 179,194 179,179 164,179 164,164 179,164 
		179,149 194,149 194,134 149,134 149,149 134,149 134,164 105,164 105,179 90,179 90,194 105,194 105,209 119,209 119,224 105,224 
		105,239 179,239 179,269 164,269 164,284 179,284 	"/>
	<polygon class="st0" points="373,284 373,269 358,269 358,284 	"/>
	<polygon class="st0" points="537,284 552,284 552,269 537,269 	"/>
	<polygon class="st0" points="15,284 0,284 0,299 15,299 	"/>
	<polygon class="st0" points="119,284 119,299 134,299 134,284 	"/>
	<polygon class="st0" points="463,284 463,269 448,269 448,284 433,284 433,269 388,269 388,284 373,284 373,299 463,299 463,314 
		478,314 478,299 493,299 493,314 478,314 478,328 507,328 507,314 522,314 537,314 537,284 522,284 522,269 507,269 507,284 	"/>
	<polygon class="st0" points="105,299 90,299 90,314 105,314 	"/>
	<polygon class="st0" points="134,299 134,313 149,313 164,313 164,328 149,328 149,343 134,343 134,358 209,358 209,373 224,373 
		224,343 239,343 239,358 254,358 254,343 269,343 269,328 179,328 179,313 254,313 254,299 269,299 269,284 314,284 314,299 
		284,299 284,313 269,313 269,328 284,328 284,343 314,343 314,328 328,328 328,313 358,313 358,343 328,343 328,358 328,388 
		343,388 343,358 358,358 358,373 373,373 373,343 388,343 388,328 403,328 403,313 373,313 373,298 343,298 343,269 298,269 
		298,254 328,254 328,224 313,224 313,239 298,239 298,224 284,224 284,209 298,209 298,224 314,224 314,194 269,194 269,224 
		254,224 254,239 269,239 269,269 254,269 254,284 209,284 209,299 164,299 164,284 149,284 149,299 134,299 	"/>
	<polygon class="st0" points="552,313 567,313 567,298 582,298 582,284 552,284 	"/>
	<polygon class="st0" points="612,299 597,299 597,314 612,314 	"/>
	<polygon class="st0" points="119,328 119,313 104,313 104,328 	"/>
	<polygon class="st0" points="537,328 552,328 552,313 537,313 	"/>
	<polygon class="st0" points="433,328 418,328 418,343 433,343 	"/>
	<polygon class="st0" points="75,358 90,358 90,343 105,343 105,328 90,328 90,313 45,313 45,328 60,328 60,343 75,343 	"/>
	<polygon class="st0" points="403,358 403,373 418,373 418,358 418,343 403,343 388,343 388,358 	"/>
	<polygon class="st0" points="493,343 478,343 478,358 493,358 	"/>
	<polygon class="st0" points="507,358 522,358 522,328 507,328 	"/>
	<path class="st0" d="M552,358h-15v15h15v15h-15v15h-14v30h-30v-60h-15v-15h-45v15h30v30h-15v15h15v15h-15v30h-15v30h-30v14h15v45
		h15v-15h15v-15h-15v-14h15v-30h30v-30h15v15h15v14h-30v90h14v-15h60v15v15h-15v15h30v15h30v-30h-15v-15h-15v-30h-15v-15h30v30h15
		v30h15v-60h-15v-14h-15v-30h15v-60h-30v-30h15v-15h-15v-30h15h15v-30h-15v15h-30V358L552,358z M537,537h-45v-45h45V537z M567,463
		v-15h15v15H567v15h-15v-15h-15v15h-15v-30h15v-30h15v45H567L567,463z"/>
	<polygon class="st0" points="597,373 612,373 612,343 597,343 	"/>
	<polygon class="st0" points="119,373 119,358 89,358 89,373 104,373 104,388 134,388 134,373 	"/>
	<polygon class="st0" points="314,373 299,373 299,388 314,388 	"/>
	<polygon class="st0" points="433,388 433,373 418,373 418,388 	"/>
	<polygon class="st0" points="90,403 105,403 105,388 90,388 	"/>
	<polygon class="st0" points="134,403 149,403 149,388 134,388 	"/>
	<polygon class="st0" points="194,388 209,388 209,373 149,373 149,388 179,388 179,403 194,403 	"/>
	<polygon class="st0" points="209,388 209,403 224,403 224,433 239,433 239,373 224,373 224,388 	"/>
	<polygon class="st0" points="507,388 507,403 522,403 522,388 	"/>
	<polygon class="st0" points="597,403 612,403 612,388 597,388 	"/>
	<polygon class="st0" points="164,403 164,418 179,418 179,403 	"/>
	<polygon class="st0" points="403,403 403,388 343,388 343,403 328,403 328,388 313,388 313,403 298,403 298,388 284,388 284,358 
		269,358 269,373 254,373 254,388 269,388 269,403 284,403 284,418 254,418 254,433 269,433 269,448 224,448 224,463 269,463 
		284,463 284,433 298,433 298,418 343,418 343,433 358,433 358,403 373,403 373,433 403,433 403,418 418,418 418,403 	"/>
	<polygon class="st0" points="164,433 149,433 149,448 164,448 	"/>
	<polygon class="st0" points="209,418 179,418 179,433 194,433 194,463 209,463 	"/>
	<polygon class="st0" points="433,418 418,418 418,448 403,448 403,463 433,463 	"/>
	<polygon class="st0" points="15,448 0,448 0,463 15,463 	"/>
	<polygon class="st0" points="90,448 90,463 105,463 105,478 119,478 119,448 	"/>
	<polygon class="st0" points="298,463 284,463 284,478 313,478 313,448 328,448 328,433 298,433 	"/>
	<polygon class="st0" points="388,448 358,448 358,463 328,463 328,493 358,493 358,508 373,508 373,493 388,493 388,478 403,478 
		403,463 388,463 	"/>
	<g>
		<polygon class="st1" points="30,418 30,433 45,433 45,448 60,448 60,418 		"/>
		<polygon class="st0" points="119,418 119,403 105,403 105,418 90,418 90,403 45,403 45,388 75,388 75,358 60,358 60,343 45,343 
			45,358 15,358 15,343 30,343 30,328 0,328 0,403 15,403 15,433 30,433 30,418 60,418 60,448 90,448 90,433 119,433 119,448 
			134,448 134,418 		"/>
		<polygon class="st0" points="45,433 30,433 30,463 45,463 45,478 15,478 15,493 60,493 60,478 75,478 75,463 60,463 60,448 
			45,448 		"/>
	</g>
	<polygon class="st0" points="134,463 134,478 149,478 149,463 	"/>
	<polygon class="st0" points="75,478 75,493 105,493 105,478 	"/>
	<polygon class="st0" points="269,493 269,478 254,478 239,478 239,493 254,493 	"/>
	<path class="st0" d="M0,508v104h104V508H0z M90,597H15v-75h75V597z"/>
	<polygon class="st0" points="388,522 388,507 373,507 373,522 	"/>
	<polygon class="st0" points="463,522 463,507 448,507 448,522 	"/>
	<polygon class="st0" points="507,522 522,522 522,507 507,507 	"/>
	<polygon class="st0" points="373,522 343,522 343,507 328,507 328,552 343,552 343,537 358,537 358,552 373,552 373,537 	"/>
	<rect x="30" y="537" class="st0" width="45" height="45"/>
	<polygon class="st0" points="134,537 134,552 149,552 149,537 	"/>
	<polygon class="st0" points="403,522 388,522 388,552 373,552 373,567 358,567 358,582 373,582 373,597 388,597 388,567 418,567 
		418,552 403,552 	"/>
	<rect x="119" y="552" class="st0" width="15" height="30"/>
	<polygon class="st0" points="298,552 298,493 284,493 284,523 239,523 239,493 224,493 224,463 209,463 209,493 194,493 194,507 
		224,507 224,522 194,522 194,508 179,508 179,493 164,493 164,478 149,478 149,493 119,493 119,523 149,523 149,508 164,508 
		164,523 149,523 149,537 164,537 164,552 149,552 149,567 179,567 179,582 194,582 194,597 179,597 179,582 164,582 164,597 
		149,597 149,612 209,612 209,597 224,597 224,567 209,567 209,537 254,537 254,552 239,552 239,582 254,582 254,597 224,597 
		224,612 269,612 269,582 284,582 284,567 269,567 269,537 284,537 284,567 313,567 313,582 328,582 328,597 343,597 343,567 
		328,567 328,552 298,552 	"/>
	<polygon class="st0" points="448,582 448,597 433,597 433,612 463,612 463,567 418,567 418,582 	"/>
	<polygon class="st0" points="522,567 522,582 537,582 537,567 	"/>
	<polygon class="st0" points="403,597 418,597 418,582 403,582 	"/>
	<polygon class="st0" points="493,582 478,582 478,612 508,612 508,597 493,597 	"/>
	<polygon class="st0" points="507,597 522,597 522,582 507,582 	"/>
	<rect x="284" y="597" class="st0" width="45" height="15"/>
	<polygon class="st0" points="358,612 373,612 373,597 358,597 	"/>
</g>
<g id="XMLID_1965_">
	<rect x="179" y="179" class="st0" width="238.9" height="239"/>
	<path id="XMLID_1967_" class="st2" d="M374.7,329.1c-9.6-3.3-22.4-7.9-37-13.1c8.6-15,16-31.8,20.3-50.4h-47v-17h58.3v-9.3H311
		v-28.2h-23.9c-4.3,0-4.3,4.1-4.3,4.1v24.1h-58.3v9.3h58.8v17h-48.5v9.3h94.1c-3.6,11.7-8.1,22.9-13.4,33
		c-30.6-10-63.3-17.9-83.4-13.1c-13.1,3.3-21.7,8.6-26.3,14.8c-23.6,27.5-6.7,69,41.1,69c28.4,0,55.6-15.5,76.7-41.3
		c31.5,15.3,94.3,41.1,94.3,41.1v-36.8C417.5,341,409.6,340.8,374.7,329.1L374.7,329.1z M242.4,362.8c-37.3,0-48.2-29.1-30.3-45.1
		c6.4-5.5,17.2-7.9,23.4-8.4c22.2-2.1,43,6.2,67.1,17.9C285.6,348.7,263.9,362.8,242.4,362.8L242.4,362.8z"/>
</g>
</svg>
