<svg id="Layer_1" data-name="Layer 1" xmlns="http://www.w3.org/2000/svg" width="64" height="64" viewBox="0 0 64 64"><defs><style>.cls-1{fill:#50c9a4;}.cls-2{fill:#3a3a49;}.cls-3{fill:#4a4a5e;}.cls-4{fill:#dfd7d5;}.cls-5{fill:#8b7f7b;}.cls-6{fill:#fff;}</style></defs><title>coffee</title><path class="cls-1" d="M32,0A32,32,0,1,1,0,32,32,32,0,0,1,32,0Z"/><rect class="cls-2" x="15.9" y="14.9" width="32.1" height="6"/><polygon class="cls-3" points="45 14.9 19 14.9 20 9.9 44 9.9 45 14.9"/><path class="cls-4" d="M46,20.9,42.4,53.1a2.2,2.2,0,0,1-2.1,1.8H23.7a2,2,0,0,1-2.1-1.8L18,20.9Z"/><path class="cls-5" d="M43.9,42.9H20a1.1,1.1,0,0,1-1-.9L17.8,31a1,1,0,0,1,1-1.1H45A1,1,0,0,1,46,31L44.8,42A.9.9,0,0,1,43.9,42.9Z"/><circle class="cls-6" cx="32.5" cy="36.4" r="4.5"/><rect class="cls-2" x="15" y="18.9" width="34" height="2"/><rect class="cls-3" x="37" y="9" width="4" height="1.49"/></svg>