<?xml version="1.0" encoding="utf-8"?>
<!-- Generator: Adobe Illustrator 22.1.0, SVG Export Plug-In . SVG Version: 6.00 Build 0)  -->
<svg version="1.0" id="图层_1" xmlns="http://www.w3.org/2000/svg" xmlns:xlink="http://www.w3.org/1999/xlink" x="0px" y="0px"
	 viewBox="0 0 476.4 476.4" style="enable-background:new 0 0 476.4 476.4;" xml:space="preserve">
<style type="text/css">
	.st0{fill:#DFB641;}
	.st1{fill:#141414;}
	.st2{fill:#2DC100;}
	.st3{fill:#FFFFFF;}
</style>
<g>
	<path class="st0" d="M433.9,388c0,25.6-20.5,46-46.2,46c-25.5,0-46.6-20.8-46.4-46.1c0.2-25.8,20.1-46.2,46.2-46.4
		C414.3,341.2,434.3,363.1,433.9,388z M381.8,413C381.8,413,381.8,413,381.8,413c4.2,0,8.3-0.1,12.5,0.1c5.5,0.2,10.5-1,14.6-5.1
		c5.9-5.8,6.3-13.5,6.2-20.9c-0.1-10.3-0.9-10.7-11-14.1c-2.5-0.8-2.2-2.6-2.2-4.4c0-3.6-0.6-7-2.3-10.1c-2.1-3.7-5.5-4.7-9.4-4.2
		c-3.9,0.5-5.4,3.5-6.1,7c-2.6,15-2.6,15.1-18,17.3c-4.2,0.6-6.1,2.6-6,6.9c0.2,6.7,0,13.3,0,20c0.1,5.5,1.9,7.3,7.6,7.4
		C372.5,413,377.1,413,381.8,413z"/>
	<path class="st1" d="M68.7,91.4c0-13.3,9.7-22.8,23.1-22.8c12.4,0.1,22.5,10.1,22.3,22.7c-0.2,13.3-9.6,22.6-22.7,22.8
		C78.6,114.3,68.7,104.2,68.7,91.4z M76.1,91.6c0,8.4,6.8,15.2,15.1,15.3c8.6,0.1,15.7-6.8,15.6-15.3c0-8.7-6.8-15.2-15.5-15.5
		C83.5,75.7,75.3,83.6,76.1,91.6z"/>
	<path class="st1" d="M68.7,384.8c0-12.9,9.8-22.5,22.9-22.5c12.6,0,22.7,10.2,22.6,22.9c-0.1,12.7-10.2,22.3-23,22.6
		C79.5,408.2,67.5,396.5,68.7,384.8z M106.8,384.7c-0.1-8.7-7-15.2-15.8-15.1c-8.5,0.1-14.7,6.8-15,15.3
		c-0.3,7.6,7.3,15.7,15.5,15.3C100.3,399.9,106.9,393.5,106.8,384.7z"/>
	<path class="st1" d="M385.2,68.7c11.3-1,23.1,10.7,22.6,22.9c-0.5,12.6-10.2,22.6-23,22.6c-12.7,0-22.6-10.2-22.5-23
		C362.5,78.3,372.2,68.6,385.2,68.7z M385.1,76.1c-8.8-0.1-15.5,6.5-15.5,15.3c0,8.5,6.5,15.3,15,15.4c8.9,0.2,15.3-6.3,15.7-15.1
		C400.7,83.2,392.5,75.4,385.1,76.1z"/>
	<path class="st1" d="M291.7,419.9c-0.4,2.5-0.7,4.6-3.5,5.1c-2.9,0.5-4.2-1.2-5.2-3.5c-3.5-8.7-15.2-54.4-18.8-68.3
		c-0.7-2.8-2-6.3,2.6-7.1c4-0.7,5.4,1.9,6.3,5.3c5.6,20.7,11.3,41.3,17,62C290.8,415.6,291.2,417.9,291.7,419.9z"/>
	<path class="st1" d="M352.5,212.3c-3.9-0.1-6.2-1-6.6-4.4c-0.4-3.3,1.7-3.6,4.2-4.3c19.4-5.2,38.8-10.5,58.3-15.8
		c3.3-0.9,6.8-1.2,7.9,2.8c1.1,3.9-1.9,5.4-5.3,6.4c-17,4.5-34,9.2-51.1,13.7C357.1,211.4,354.3,211.9,352.5,212.3z"/>
	<path class="st1" d="M469.3,263.5c-13.4-1.4-26.7-2.7-40.1-4.1c-0.8-0.1-1.6-0.2-2.5-0.4c-2.7-0.6-4.7-1.7-4.4-4.9
		c0.3-3.1,2.8-4,5-3.8c14.9,1.2,29.8,2.6,44.6,4.1c3,0.3,5,2.2,4.4,5.5C475.5,263.9,472.4,263.8,469.3,263.5z"/>
	<path class="st1" d="M170.1,83.2c-0.2,2-0.3,4-2.8,4.6c-2.6,0.7-4.5-0.2-5.7-2.7c-3.8-8.3-7.7-16.5-11.6-24.8
		c-2-4.4-4.1-8.7-6.1-13c-0.6-1.2-1-2.5-1.3-3.8c-0.5-2.4-0.2-4.8,2.5-5.8c2.8-1,4.5,0.6,5.6,2.8c4.8,10.4,9.7,20.8,14.3,31.2
		C166.7,75.6,169.6,78.8,170.1,83.2z"/>
	<path class="st1" d="M84.9,161.6c2.5,1,5.4,2.1,8.3,3.4c11.1,5.3,22.1,10.7,33.2,16c2.9,1.4,4.2,3.3,2.6,6.3
		c-1.5,2.9-3.8,3.3-6.7,1.9c-13.2-6.3-26.3-12.6-39.5-18.8c-2.6-1.2-4-3.1-3.1-5.9C80.3,162.2,82.2,161.5,84.9,161.6z"/>
	<path class="st1" d="M243.8,353c0.3-2.8-1.6-6.5,3.2-7c4.5-0.5,5.5,2.5,5.9,6.3c1,11.6,2.2,23.1,3.3,34.6c0.4,3.5-0.1,6.6-4.3,6.9
		c-3.8,0.3-5-2.2-5.2-5.7C245.8,376.4,244.8,364.7,243.8,353z"/>
	<path class="st1" d="M386.4,230c-1.5,0.1-3,0.3-4.5,0.3c-2.7,0-5.1-0.5-5.6-3.8c-0.5-3.4,1.7-5.1,4.5-5.5
		c5.6-0.8,11.2-1.1,16.9-1.6c5.8-0.5,11.6-0.9,17.4-1.3c2.8-0.2,5.5,0.1,5.9,3.7c0.4,3.6-1.7,5.2-4.9,5.5c-9.9,1-19.8,1.9-29.8,2.8
		C386.5,230.1,386.4,230,386.4,230z"/>
	<path class="st1" d="M75.6,347.4c2.2,0.2,3.6,0.8,4.2,2.7c0.7,2,0.2,3.5-1.1,5c-3.5,3.9-8.1,6.4-12.4,9.1
		c-5.7,3.7-11.1,7.8-16.9,11.4c-2.6,1.6-5.4,2.8-7.4-0.3c-2-3-0.6-6,2.3-7.6c9.4-5.4,17.7-12.3,26.7-18.3
		C72.6,348.4,74.2,347.7,75.6,347.4z"/>
	<path class="st1" d="M259.9,41.7c-0.9,11.6-1.6,22.4-2.5,33.1c-0.1,1.6-0.4,3.4-1.2,4.8c-1.1,1.9-3.1,2.5-5.2,1.7
		c-3-1.1-3.5-3.7-3.2-6.6c0.9-9.1,1.8-18.1,2.6-27.2c0.2-2,0.2-4,0.4-5.9c0.3-3.1,1.2-5.7,5-5.3C259.8,36.7,259.6,39.9,259.9,41.7z"
		/>
	<path class="st1" d="M149.9,106c0.2,1.9-0.5,3.3-2.4,3.9c-2.5,0.7-4.7,0.1-6.2-2c-3.3-4.4-6.4-8.9-9.6-13.4
		c-2.9-4.1-5.7-8.2-8.5-12.3c-0.9-1.4-1.7-2.9-2.3-4.4c-0.9-2.3-0.4-4.4,1.7-5.7c2.2-1.4,4.4-0.6,5.7,1.3c7,9.7,13.8,19.5,20.6,29.3
		C149.6,103.7,150,104.8,149.9,106z"/>
	<path class="st1" d="M232.7,350.5c-0.8,10.1-1.6,19.6-2.4,29c-0.3,3-1,5.9-4.9,5.5c-3.8-0.5-4.6-3.4-4.3-6.6
		c0.8-9.3,1.9-18.5,2.6-27.8c0.2-3.1,1.1-4.7,4.4-4.6C231.5,346,232.5,348.2,232.7,350.5z"/>
	<path class="st1" d="M188.8,439.7c-2.3,9-4.6,18.3-7.2,27.6c-0.6,2-2.9,3.2-5.3,2.3c-2.3-0.8-3.7-2.6-3.1-5c2.2-9,4.5-18,6.9-26.9
		c0.7-2.6,2.7-3.7,5.4-3C188.1,435.2,188.9,437,188.8,439.7z"/>
	<path class="st1" d="M303.5,464.1c0.1,3.2-1.3,4.9-3.6,5.5c-2.6,0.7-4.8-0.7-5.5-3.1c-2.5-8.9-4.8-17.9-6.8-27
		c-0.5-2.1,0.5-4.3,3.1-5c2.4-0.6,4.6,0.1,5.4,2.4C299.3,446.1,300.2,455.8,303.5,464.1z"/>
	<path class="st1" d="M205.5,99c-0.2,2.7-0.5,4.9-3.4,5.2c-2.6,0.3-4.6-0.5-5.3-3.3c-2.3-8.3-4.7-16.5-6.8-24.9
		c-0.6-2.6-1.2-6,2.7-6.9c3.9-0.9,5.2,1.7,6,4.9c1.9,7.2,4,14.3,6,21.5C205.1,96.9,205.3,98.2,205.5,99z"/>
	<path class="st1" d="M434.1,334.1c-1.1-0.4-2.3-0.6-3.3-1c-7.2-3.3-14.4-6.6-21.7-10c-3-1.4-4.5-3.8-3.1-6.8
		c1.4-3.2,4.3-2.6,6.8-1.5c7.8,3.6,15.6,7.3,23.4,11c2.3,1.1,3.2,2.9,2.6,5.3C438.2,333.4,436.1,333.7,434.1,334.1z"/>
	<path class="st1" d="M426.7,154.9c-2.4-0.1-3.9-0.9-4.6-2.9c-0.9-2.5,0.1-4.4,2.2-5.5c6.4-3.2,12.8-6.2,19.3-9.2
		c2.1-1,4.2-1.9,6.5-2.5c2-0.5,4.2-0.3,5,2.1c0.7,2.3,0.7,4.7-2,6c-8.1,3.9-16.2,7.7-24.3,11.5C428,154.7,427.1,154.8,426.7,154.9z"
		/>
	<path class="st1" d="M105.5,254.5c-2.1-0.2-4.6-1-4.8-4.4c-0.2-3.5,2-4.6,5-4.9c6.3-0.5,12.6-0.9,18.9-1.4c2.6-0.2,4.8,0.1,4.9,3.4
		c0.2,3.2-1.2,5.2-4.4,5.5C118.9,253.3,112.6,253.8,105.5,254.5z"/>
	<path class="st1" d="M232.7,125.2c-0.1,2-1.2,4.1-4.3,4.4c-2.9,0.2-4.6-0.8-4.8-4.2c-0.4-6.3-1.3-12.5-1.7-18.8
		c-0.1-2.7,0.6-5.5,4.1-5.8c3.4-0.3,4.8,1.6,5,4.8C231.6,111.9,232.1,118.1,232.7,125.2z"/>
	<path class="st1" d="M376.3,298c1.1,0.4,2.4,0.7,3.6,1.2c4.8,2.3,9.5,4.8,14.3,7.1c2.5,1.2,3.5,3.2,2.6,5.7
		c-1.1,2.7-3.4,3.7-6.1,2.4c-5.7-2.7-11.4-5.6-17-8.4c-2.3-1.1-2.1-3.2-1.7-5.2C372.3,298.6,374.3,298.4,376.3,298z"/>
	<path class="st1" d="M374.3,330.7c0,3.2-2.9,5.4-5.8,3.8c-5.4-3.1-10.7-6.6-15.7-10.3c-2.1-1.5-2.6-4.4-0.8-6.7
		c1.7-2.2,4.2-2,6.3-0.6c4.7,3.1,9.3,6.3,13.9,9.5C373.8,327.4,374.4,328.9,374.3,330.7z"/>
	<path class="st1" d="M12.1,303.5c-2.8,0.1-4.6-1-5.2-3.4c-0.6-2.8,0.5-5.1,3.2-5.9c5.7-1.6,11.5-3,17.4-4.1
		c2.4-0.5,4.8,0.2,5.7,2.8c0.8,2.4-0.2,4.5-2.5,5.3C24.4,300.1,18.1,301.8,12.1,303.5z"/>
	<path class="st1" d="M91.1,345.8c-1.9,0.1-3.2-0.8-4-2.4c-0.8-1.7-0.7-3.3,0.7-4.6c4.9-4.8,10.7-8.4,16.5-12
		c1.4-0.9,3.3-0.7,4.7,0.6c1.4,1.4,1.5,3.3,1,5.2C109.1,335,93.9,345.8,91.1,345.8z"/>
	<path class="st1" d="M66.1,162.8c-6.1-2.9-12.3-5.5-18.3-8.7c-1.9-1-2.5-3.5-1.2-5.7c1.3-2.2,3.3-2.9,5.5-1.9
		c5.5,2.4,10.9,4.9,16.2,7.5c2,1,3.3,2.9,2.5,5.4C70.2,161.5,68.6,162.6,66.1,162.8z"/>
	<path class="st1" d="M449.5,186.3c-3.6,0.1-5.7-0.4-6.2-3c-0.5-2.6,0.5-4.7,3.1-5.5c5.9-1.6,11.8-3.1,17.8-4.5
		c2.6-0.6,4.7,0.6,5.4,3.2c0.7,2.6-0.6,4.8-3,5.5C460.6,183.7,454.4,185.1,449.5,186.3z"/>
	<path class="st1" d="M97.5,144.7c-0.6-0.2-1.3-0.3-1.8-0.6c-5-3.5-10.1-7-14.9-10.6c-2.1-1.6-2.8-3.8-1-6.1
		c1.8-2.5,4.2-2.5,6.5-0.8c4.9,3.4,9.8,6.8,14.6,10.3c2,1.4,2.3,3.6,1.4,5.8C101.4,144.5,99.5,144.7,97.5,144.7z"/>
	<path class="st1" d="M178.2,376.4c0.1,1.9-1,3.5-1.8,5.1c-2.1,4.3-4.3,8.6-6.5,12.9c-1.2,2.5-3.3,3.3-5.8,2.3c-2.3-1-3-3.2-2.3-5.4
		c2-6.4,5.6-12,8.7-17.9c1.1-2.1,3.4-2,5.4-1.4C178,372.6,178.2,374.5,178.2,376.4z"/>
	<path class="st1" d="M98.4,205.5c-5.1-1.3-11.1-2.7-17-4.5c-2.5-0.8-4-3-3.2-5.9c0.9-3.2,3.6-3.5,6-2.9c5.8,1.4,11.6,3.1,17.3,4.8
		c2.5,0.8,3,2.9,2.7,5.2C103.7,205.1,101.5,205.3,98.4,205.5z"/>
	<path class="st1" d="M180,39.2c0-2.9,0.5-4.9,3.2-5.4c2.5-0.5,5,0.2,5.7,2.7c1.7,6,3,12.2,4.2,18.3c0.5,2.4-0.7,4.4-3.2,4.9
		c-2.4,0.5-4.4-0.7-5.1-3C183,50.8,181.5,44.7,180,39.2z"/>
	<path class="st1" d="M370.8,149.9c-2.3,0-3.6-0.3-4.2-2.1c-0.6-2-0.8-4.3,0.8-5.6c5.1-3.9,10.3-7.7,15.7-11.1c2-1.3,4.7-0.8,6,1.7
		c1.2,2.2,0.5,4.2-1.4,5.7c-4.7,3.6-9.5,7.1-14.3,10.5C372.5,149.7,371.3,149.8,370.8,149.9z"/>
	<path class="st1" d="M150.8,435.5c-1.9,6.4-5.5,12.4-8.7,18.6c-0.9,1.7-3.2,1.5-5,1c-2.1-0.7-2.8-2.6-2.3-4.4
		c1.9-6.9,5-13.3,8.8-19.4c1-1.5,2.9-1.7,4.5-1C150.2,431.2,150.9,433,150.8,435.5z"/>
	<path class="st1" d="M322.4,67.6c-2.6,6.2-4.8,13.3-9.1,19.5c-1.2,1.7-3.4,1.3-5.1,0.5c-1.9-0.9-2.6-3-1.9-4.7
		c2.7-6.4,5.5-12.7,8.6-18.9c0.9-1.7,3.1-1.7,4.9-1.1C321.8,63.5,322.3,65.1,322.4,67.6z"/>
	<path class="st1" d="M416.6,117.9c-2.1,0-3.8-0.5-4.4-2.6c-0.6-2.3-0.1-4.4,1.9-5.8c4.5-3.1,9-6.2,13.6-9.2c2.2-1.4,4.7-2,6.7,0.6
		c1.7,2.2,1.3,4.9-0.6,6.3c-5,3.7-10.4,7-15.7,10.4C417.5,117.8,416.9,117.8,416.6,117.9z"/>
	<path class="st1" d="M267.8,129.6c-3.1-0.1-4.7-1.6-4-4.8c1.1-5.2,2.3-10.4,3.8-15.5c0.8-2.9,2.6-5.3,6.2-4.4c3.9,1,3.8,4.2,3,7.3
		c-1.2,4.6-2.7,9.2-4.1,13.8C271.9,128.6,270.2,129.5,267.8,129.6z"/>
	<path class="st1" d="M117.9,416.7c-0.4,2.8-2.4,4.9-4,7.2c-1.7,2.6-3.8,5-5.2,7.9c-1.5,3-4.4,4.4-7.5,2.6c-3.2-1.9-2.3-4.8-0.6-7.4
		c2.8-4.3,5.7-8.5,8.6-12.7c1.5-2.2,3.6-2.9,6.1-2.2C117.5,412.8,117.9,414.6,117.9,416.7z"/>
	<path class="st1" d="M356.8,253c-2.1-0.1-4.3-0.1-6.4-0.4c-3.2-0.4-4.6-2.3-4.4-5.5c0.2-3.2,2.2-3.6,4.8-3.4
		c3.6,0.3,7.3,0.5,10.9,0.8c3.1,0.2,5.1,1.4,4.9,4.9c-0.3,3.7-3.1,3.8-5.8,3.9c-1.3,0-2.6-0.2-3.9-0.4
		C356.8,252.9,356.8,253,356.8,253z"/>
	<path class="st1" d="M357.6,223.2c2.4,0,3.9-0.1,5.4,0c2.3,0.3,3.5,1.7,3.5,4.1c0.1,2.3-0.9,4-3.2,4.3c-4.2,0.5-8.5,1-12.8,1
		c-2.8,0-4.6-1.6-4.6-4.7c0-3.3,1.8-4.2,4.8-4.2C353.3,223.7,355.9,223.3,357.6,223.2z"/>
	<path class="st1" d="M123.5,232.6c-3.1-0.2-6.2-0.4-9.3-0.7c-2.5-0.3-4.3-1.4-4.3-4.4c0-3,1.7-4.3,4.4-4.3c4.3,0,8.6,0.2,12.8,0.8
		c2.8,0.4,2.9,2.9,2.5,5.1C128.9,232.3,126.3,232.8,123.5,232.6z"/>
	<path class="st1" d="M243.7,121.7c0.3-2.6,0.6-5.3,0.9-7.9c0.3-2.9,1.9-4.1,4.7-3.9c2.8,0.2,3.8,2,3.8,4.4c0,3.5-0.3,7-0.5,10.4
		c-0.2,3.5-2.1,5.1-5.5,5c-3.6-0.2-3.5-2.8-3.4-5.4c0-0.8,0.1-1.7,0.1-2.5C243.8,121.7,243.8,121.7,243.7,121.7z"/>
	<path class="st1" d="M262,452.5c-0.3,2.8-0.9,5.6-4.2,6.1c-3.2,0.5-5-1.5-5.3-4.6c-0.3-3.1-0.6-6.3-0.6-9.4c0-2.3,1.1-3.7,3.6-3.9
		c2.4-0.2,4.4,0.5,4.9,3.1C261.1,446.7,261.5,449.6,262,452.5z"/>
	<path class="st1" d="M218.4,406.9c0.3-2.9,0.5-5.4,0.8-7.8c0.4-2.9,2.1-4.4,5.1-4.2c3.1,0.2,4.2,2.5,4.3,5.1
		c0.1,2.6-0.4,5.3-0.9,7.8c-0.6,2.9-1.9,5.4-5.6,4.8C218.5,412,218.8,409,218.4,406.9z"/>
	<path class="st1" d="M466,223.1c-3.3,0.3-6.2-0.3-6.6-4.3c-0.4-3.9,2.2-5.2,5.5-5.5c2.3-0.2,4.6-0.5,6.9-0.5c2.5,0,4,1.4,4.4,3.9
		c0.4,2.5-0.8,4.3-3,5.1C470.9,222.4,468.4,222.6,466,223.1z"/>
	<path class="st1" d="M80.1,257c-0.3,0-1.5,0-2.6,0c-2.5-0.1-4-1.5-4.4-3.9c-0.4-2.5,0.9-4.2,3.1-5c3.1-1.2,6.5-1.1,9.8-1.2
		c2.7-0.1,4.5,1.3,4.7,4c0.2,2.8-0.9,4.9-3.9,5.4C84.9,256.6,82.9,256.7,80.1,257z"/>
	<path class="st1" d="M120.6,160.3c-4-1.5-8-3.2-10.7-6.7c-1.3-1.6-1.3-3.8,0.1-5.6c1.3-1.6,3.3-2,5-1.1c2.9,1.5,5.8,3.2,8.5,5.2
		c1.8,1.4,2.4,3.6,1.3,5.9C124,159.7,122.6,160.6,120.6,160.3z"/>
	<path class="st1" d="M368.2,57.1c-3,0.1-4.7-1.2-4.3-3.9c0.5-4.2,2.7-7.8,5.6-10.8c1.8-1.8,4.4-1.9,6.4-0.1c1.9,1.7,1.6,4,0.5,6
		c-1.3,2.3-2.8,4.5-4.3,6.8C371.1,56.6,369.6,57.2,368.2,57.1z"/>
	<path class="st1" d="M337.5,91.3c0-3.6,4.7-10.9,7.6-12.1c1.8-0.7,3.3-0.2,4.6,0.9c1.7,1.3,1.9,3.4,1,5c-1.7,3.2-3.7,6.2-5.9,9.1
		c-1.2,1.6-3.2,1.4-5.1,0.9C337.6,94.4,337.7,92.6,337.5,91.3z"/>
	<path class="st1" d="M292.4,18.7c0.6-2.5,1-5.9,2.1-9c0.8-2.6,3.1-3.4,5.7-2.7c2.4,0.6,3.7,2.5,3.3,4.9c-0.6,3.3-1.6,6.5-2.7,9.6
		c-0.8,2.4-2.9,3-5.3,2.5C292.9,23.4,292.5,21.5,292.4,18.7z"/>
	<path class="st1" d="M150.6,367.1c-3.2-0.2-4.9-2.9-3.5-6.1c1.2-2.7,2.7-5.3,4.6-7.7c1.8-2.3,4.5-3.2,7.1-1.3
		c2.5,1.8,1.9,4.4,0.6,6.7c-1.2,2.2-2.5,4.3-3.9,6.3C154.3,366.7,152.5,367.2,150.6,367.1z"/>
	<path class="st1" d="M334,42.5c-1,3.7-2.3,7.6-5,10.8c-1.4,1.7-3.5,1.9-5.4,0.7c-1.8-1.2-2.8-3.1-2-5.1c1.4-3.3,3.1-6.6,4.9-9.7
		c1-1.7,2.9-2.1,4.8-1.4C333.3,38.5,333.9,40.2,334,42.5z"/>
	<path class="st1" d="M259.1,423.6c-0.1,1.3-0.1,2.9-0.4,4.3c-0.5,1.9-1.8,3.1-3.9,3.1c-2.1,0.1-3.5-0.9-4.1-2.9
		c-1.1-3.7-1.3-7.4-1-11.2c0.2-2.4,1.5-3.7,3.8-3.7c2.4-0.1,4.2,0.7,4.6,3.4C258.4,418.9,258.7,421.1,259.1,423.6z"/>
	<path class="st1" d="M335,105.8c0.1,2.7-5.2,10.5-7.6,11.3c-2,0.7-4,0.5-5.5-1.2c-1.3-1.5-1.2-3.5-0.2-5.1c1.6-2.5,3.4-4.9,5.2-7.2
		c1.4-1.7,3.4-2.1,5.4-1.4C334.1,102.8,334.7,104.3,335,105.8z"/>
	<path class="st1" d="M83.9,284.3c-2.8-0.2-5.1-0.2-5.7-3c-0.6-2.7,0.5-4.7,2.9-5.6c2.9-1.1,6-1.9,9.1-2.4c2.5-0.4,4.6,0.6,5,3.5
		c0.4,2.7-0.7,4.6-3.2,5.4C89.1,283.1,86.2,283.7,83.9,284.3z"/>
	<path class="st1" d="M392.6,284.3c-2.4-0.6-5.5-1.3-8.5-2.2c-2.6-0.8-3.5-2.9-3-5.5c0.5-2.7,2.5-3.5,4.8-3.3
		c3.3,0.3,6.6,1.1,9.6,2.6c2.1,1.1,3.2,2.7,2.7,5.3C397.7,284,395.6,284.1,392.6,284.3z"/>
	<path class="st1" d="M129.4,388.7c3.3,0.1,5.5,3.4,4.1,6.2c-1.5,3.1-3.4,6.1-5.8,8.6c-2,2.2-4.8,2.3-6.7-0.7
		c-1.8-2.9,0.1-5.4,1.6-7.8C124.4,392.2,126.2,389.4,129.4,388.7z"/>
	<path class="st1" d="M18.1,183.9c-2.1-0.5-5.2-1-8.2-1.9c-2.7-0.8-3.5-2.9-3-5.5c0.5-2.6,2.5-3.6,4.8-3.3c3.1,0.5,6.1,1.4,9.2,2.2
		c2.7,0.8,3.6,2.8,3.1,5.4C23.4,183.5,21.5,184.1,18.1,183.9z"/>
	<path class="st1" d="M53.8,258.9c-4.1,0.2-7.3,0.4-8.2-3.5c-0.4-1.7,0-3.6,1.7-4.3c4.4-1.8,9-2.1,13.7-1.1c1.9,0.4,2.3,2.2,2.2,4
		c-0.1,2-0.9,3.6-3,4C57.7,258.4,55.2,258.7,53.8,258.9z"/>
	<path class="st1" d="M44.8,216.6c2.1,0.4,4.2,0.7,6.3,1.2c2,0.5,3,1.9,3,4c0.1,2.2-1,3.5-3,3.9c-4.5,1-8.9,0.2-13.1-1.2
		c-1.6-0.5-1.9-2.2-1.8-3.8c0.1-1.7,0.7-3.2,2.7-3.7C40.9,216.5,42.8,216.3,44.8,216.6z"/>
	<path class="st1" d="M216.6,43.3c-0.3-0.9,0-2.4,0.4-4.1c0.5-2.2,2-2.9,4-2.9c2-0.1,3.7,0.8,4,2.9c0.5,3.4,1.1,6.9,1.1,10.3
		c0,2.3-0.9,4.6-4,4.7c-3,0.1-4.1-1.8-4.6-4.2C217,48,216.9,46,216.6,43.3z"/>
	<path class="st1" d="M68,322.4c-2.8,0-4.5-0.6-5.2-2.6c-0.7-2.1-0.4-4.2,1.6-5.2c2.9-1.5,6-2.8,9.1-3.8c2.2-0.7,4.4-0.3,5.4,2.2
		c0.9,2.4,0,4.3-2.2,5.4C73.7,319.9,70.5,321.3,68,322.4z"/>
	<path class="st1" d="M306.6,101c-1.1,3.5-2.1,7.4-5.1,10.2c-1.8,1.7-3.9,1.7-5.9,0.4c-2-1.3-2-3.4-1.2-5.3c1.2-2.9,2.7-5.6,4.2-8.4
		c1.2-2.1,3.2-2.1,5.2-1.6C306.2,97,306.3,98.9,306.6,101z"/>
	<path class="st1" d="M356.5,274.5c-2.1-0.6-5.1-1.2-7.9-2.2c-2.7-1-3-3.4-2.6-5.8c0.5-2.8,2.7-3.1,5-2.7c2.8,0.6,5.5,1.1,8.2,2
		c2.4,0.8,4,2.6,3.4,5.3C362.1,273.9,359.8,274.5,356.5,274.5z"/>
	<path class="st1" d="M37.3,333.7c0,2-0.6,3.6-2.5,4.4c-2.4,1.1-4.8,2.2-7.2,3.2c-2.6,1-5.2,0.8-6.3-2.1c-1-2.5-0.2-4.9,2.6-6.2
		c2.4-1.1,4.7-2.4,7.2-3.3C34.5,328.5,37.2,330.3,37.3,333.7z"/>
	<path class="st1" d="M212.2,351.6c-0.4,2.6-0.7,5.6-2,8.3c-1.1,2.1-2.8,3.4-5.3,2.7c-2.2-0.6-3.3-2.6-3-4.6
		c0.5-3.6,1.3-7.2,2.4-10.6c0.6-2,2.8-1.6,4.3-1.3C211.4,346.6,212.2,348.7,212.2,351.6z"/>
	<path class="st1" d="M26.2,134.7c2.9,1,6.8,2.2,9.9,4.6c1.8,1.4,1.6,4,0.4,6c-1.2,2-3.2,2.4-5.2,1.5c-2.9-1.2-5.7-2.6-8.4-4.1
		c-2.1-1.1-2.2-3.2-1.8-5.3C21.6,135.3,23.3,134.6,26.2,134.7z"/>
	<path class="st1" d="M122.9,212c-1.1-0.3-3.4-0.7-5.6-1.4c-2.4-0.8-3.9-2.6-3.4-5.3c0.5-2.7,2.7-3.8,5.2-3.4c2.9,0.4,5.8,1.1,8.6,2
		c2.5,0.8,2.1,3.1,1.7,5C128.7,211.7,126.5,212.3,122.9,212z"/>
	<path class="st1" d="M212,122.9c0.3,4.3-0.8,6.1-3.8,6.6c-3.2,0.5-4.4-1.3-4.9-4.1c-0.4-2.1-1.1-4.1-1.4-6.3
		c-0.3-2.5,0.6-4.7,3.3-5.4c2.6-0.6,4.6,0.8,5.4,3.2C211.3,119.4,211.7,121.9,212,122.9z"/>
	<path class="st1" d="M129.6,267c0.1,5.6-3.9,5.6-6.8,6.7c-2.8,1-6,1.9-8.2-1c-2-2.7-0.7-5.4,1.9-6.5c3-1.3,6.3-1.9,9.5-2.4
		C129.1,263.3,129.3,265.7,129.6,267z"/>
	<path class="st1" d="M295,350.8c-0.3,2.5-1.4,4.3-4.3,4.3c-2.9-0.1-4.7-1.6-4.9-4.5c-0.2-3.1,1.8-4.4,4.6-4.6
		C293.9,345.6,294.4,348.1,295,350.8z"/>
	<path class="st1" d="M355.1,290.7c-0.2,2.8-1.7,4.4-4.4,4.2c-2.5-0.2-5-0.9-4.8-4.4c0.2-2.8,1.4-4.9,4.6-4.7
		C353.4,285.9,354.8,287.8,355.1,290.7z"/>
	<path class="st1" d="M385,250.9c-0.3,2.7-1.9,4.3-4.6,4.2c-2.7-0.1-4.2-1.9-4.2-4.6c0.1-2.8,1.8-4.4,4.6-4.2
		C383.5,246.5,385.3,247.9,385,250.9z"/>
	<path class="st1" d="M3.7,212.9c3.2,0.1,4.4,1.8,4.4,4.5c0,2.8-1.6,4.4-4.2,4.4c-2.6,0-3.8-2-3.9-4.2C-0.1,215,1.1,213.1,3.7,212.9
		z"/>
	<path class="st1" d="M22.7,252.8c2.5,0.1,3.8,2,3.8,4.5c0,2.6-1.8,4.3-4.5,4.2c-2.6-0.1-4.4-1.8-4.2-4.5
		C18,254.5,19.4,252.7,22.7,252.8z"/>
	<path class="st1" d="M54.7,326.1c-0.4,2.7-2,4.3-4.6,4.2c-2.8-0.1-4.2-2.1-4-4.6c0.2-2.4,1.6-4.5,4.5-4.2
		C53.1,321.8,54.5,323.4,54.7,326.1z"/>
	<path class="st1" d="M223.5,453.8c0,3.2-1.5,4.8-4.3,4.8c-2.8,0-4.3-1.8-4.3-4.5c0-2.5,1.6-4.1,4.1-4.1
		C221.6,450,223.4,451.2,223.5,453.8z"/>
	<path class="st1" d="M221.8,4c-0.4,2.7-1.8,4.3-4.7,4.1c-2.5-0.2-4.1-1.4-4.1-4c0-3,2.1-4.1,4.6-4.1C220,0,221.5,1.5,221.8,4z"/>
	<path class="st1" d="M310.8,388.2c2.5,0.2,3.9,2,4,4.5c0.1,2.6-1.5,4.4-4.3,4.4c-2.7,0-4.4-1.5-4.3-4.3
		C306.3,390.1,307.7,388.4,310.8,388.2z"/>
	<path class="st1" d="M227.4,68c-0.4,2.5-1.5,4.4-4.3,4.4c-2.7,0-4.4-1.4-4.4-4.2c0-2.6,1.2-4.4,4.1-4.5
		C225.9,63.6,226.8,65.6,227.4,68z"/>
	<path class="st1" d="M108.6,294c2.6,0,3.9,1.8,4.1,4.1c0.2,2.6-1.3,4.6-4.1,4.6c-2.4,0-4-1.5-4.1-4.1
		C104.3,295.9,105.7,294.3,108.6,294z"/>
	<path class="st1" d="M223.5,22.7c0.1,2.4-1.8,3.7-4.4,3.8c-2.5,0-4.1-1.7-4.2-4.1c-0.1-2.7,1.5-4.5,4.2-4.6
		C221.8,17.7,223.5,19.2,223.5,22.7z"/>
	<path class="st1" d="M103.4,49.7c-2.5-0.4-4.3-1.8-4.2-4.5c0.1-2.9,2-4.1,4.6-3.9c2.5,0.2,4.4,1.3,4.2,4.3
		C107.9,48.6,105.9,49.4,103.4,49.7z"/>
	<path class="st1" d="M129.6,290.7c-0.2,2.8-1.5,4.4-4.4,4.2c-2.6-0.2-3.9-1.7-3.9-4.2c0.1-2.8,1.4-4.9,4.4-4.8
		C128.8,286,129.3,288.3,129.6,290.7z"/>
	<path class="st1" d="M350.2,345.9c-0.6,2.7-2.1,4.4-4.8,4.2c-2.4-0.2-4-1.8-3.9-4.3c0.1-2.7,1.7-4.3,4.4-4.3
		C348.7,341.5,349.9,343.5,350.2,345.9z"/>
	<path class="st1" d="M257.5,26.6c-2.4-0.5-4.5-1.2-4.7-4.2c-0.2-2.9,1.5-4.4,4-4.6c2.7-0.2,4.4,1.3,4.6,4
		C261.7,24.6,259.9,25.9,257.5,26.6z"/>
	<path class="st1" d="M26.6,218.7c-0.4,3.1-1.6,4.8-4.5,4.8c-2.9,0-4.3-1.7-4.3-4.4c0-2.5,1.7-4.1,4.1-4.2
		C24.6,214.7,26,216.6,26.6,218.7z"/>
	<path class="st1" d="M220.9,422.2c4,0,5,2.1,5,4.6c0,2.3-1.3,4.1-4,4.1c-3,0.1-4.3-1.8-4.3-4.4
		C217.6,424.1,218.8,422.2,220.9,422.2z"/>
	<path class="st1" d="M49.8,103.1c-0.3,2.7-1.1,4.7-4.1,4.9c-3,0.2-4.2-1.6-4.4-4.1c-0.2-2.6,1-4.5,3.9-4.7
		C48,99,49.2,100.8,49.8,103.1z"/>
	<path class="st1" d="M259.1,8.2c-2.6,0-4.2-1.3-4.3-3.8c-0.1-2.8,1.6-4.4,4.3-4.3c2.3,0,4.2,1.1,4.3,3.8
		C263.5,6.8,261.8,8,259.1,8.2z"/>
	<path class="st1" d="M465.9,303.4c-3-0.2-4.5-1.7-4.6-4.4c-0.1-2.7,1.4-4.4,4.1-4.5c2.9-0.1,4.3,1.8,4.4,4.3
		C469.9,301.3,468.3,303,465.9,303.4z"/>
	<path class="st1" d="M4,254.7c2.6,0.2,4.1,1.5,4.1,4.1c0,2.7-1.1,4.5-4,4.6c-3.1,0.1-4.1-2-4.1-4.5C0,256.4,1.5,254.9,4,254.7z"/>
	<path class="st1" d="M388.6,170.1c-0.4,2.3-1.2,4.5-4.2,4.5c-2.8,0-4.3-1.7-4.3-4.4c0-2.6,1.2-4.4,4.1-4.6
		C387.3,165.5,388.2,167.5,388.6,170.1z"/>
	<path class="st1" d="M128.5,353c-0.1,2-1.7,3.4-4.4,3.5c-2.6,0-4.1-1.6-4.1-4c-0.1-2.5,1.2-4.5,4.1-4.5
		C126.9,347.9,128.3,349.4,128.5,353z"/>
	<path class="st1" d="M221.9,472.4c-0.5,2.3-1.8,3.9-4.3,3.9c-2.6,0-4.6-1.1-4.6-4.1c0-2.6,1.8-3.9,4.2-4
		C220,468,221.4,469.7,221.9,472.4z"/>
	<path class="st1" d="M404.8,124.8c-0.2,2.9-1.9,4.1-4.6,4.1c-2.9-0.1-4.2-2-4.1-4.6c0.1-2.5,2-4,4.3-3.9
		C402.9,120.6,405,121.7,404.8,124.8z"/>
	<path class="st1" d="M259.1,476.4c-2.4,0-4.2-1.1-4.3-3.7c-0.1-2.7,1.3-4.5,4.1-4.5c2.7,0,4.5,1.4,4.5,4.2
		C263.4,475,261.6,476.1,259.1,476.4z"/>
	<path class="st1" d="M403.4,252.4c-0.4,2.8-1.6,4.5-4.5,4.4c-2.8-0.1-4.1-1.8-4.1-4.5c0.1-2.8,1.8-4.3,4.4-4.3
		C401.9,248.1,403.2,250.1,403.4,252.4z"/>
	<path class="st1" d="M321.9,422.2c-2.7-0.3-4.2-1.6-4-4.5c0.2-2.7,1.8-3.7,4.3-3.7c2.9,0,4.2,1.7,4,4.5
		C326.1,421.1,324.4,422.1,321.9,422.2z"/>
	<path class="st1" d="M72.5,119.1c-0.3,2.8-1.8,4.2-4.6,4c-2.8-0.2-4.3-1.6-4.1-4.5c0.2-3.1,2.3-3.8,4.8-3.8
		C71.1,114.9,72.3,116.5,72.5,119.1z"/>
	<path class="st1" d="M350.6,181.7c3.1,0,4.6,1.5,4.4,4.3c-0.2,2.4-1.4,4.4-3.9,4.3c-2.9-0.2-5-1.9-5.1-5.1
		C345.8,181.7,348.7,182,350.6,181.7z"/>
	<path class="st1" d="M447.4,298.5c-2.7-0.2-4.2-1.6-4.2-4.4c0-2.7,1.7-4,4.1-4c2.5,0,4.5,1,4.5,4.1
		C451.8,297.1,450,298.2,447.4,298.5z"/>
	<path class="st1" d="M290.3,129.6c-2.8-0.6-4.9-1.5-4.4-4.5c0.5-3,2.8-4,5.5-3.7c2.6,0.3,3.6,2.1,3.4,4.5
		C294.7,129,292.6,129.6,290.3,129.6z"/>
	<path class="st1" d="M60,189.3c-0.5,2.4-1.9,3.9-4.3,3.9c-2.6-0.1-4.4-1.4-4.2-4.3c0.2-2.8,2-4.1,4.7-3.9
		C58.7,185.1,59.7,186.9,60,189.3z"/>
	<path class="st1" d="M302.8,367.6c-0.4,2.8-1.8,4.5-4.6,4.3c-2.4-0.1-4-1.5-4.1-4.1c0-3,2-4.1,4.5-4.1
		C301,363.9,302.6,365.3,302.8,367.6z"/>
	<path class="st1" d="M181.6,350.5c0.4-1.9,0.1-4.5,3.2-4.5c3.4,0,5.3,2.1,5.4,5.3c0,2.5-2.1,3.7-4.5,3.8
		C182.8,355.1,181.6,353.5,181.6,350.5z"/>
	<path class="st1" d="M337.1,29.2c-2.8-0.1-4-1.7-3.8-4.5c0.2-3,2.3-3.8,4.9-3.7c2.6,0.1,3.9,1.9,3.8,4.3
		C341.7,28,340.1,29.5,337.1,29.2z"/>
	<path class="st1" d="M144.6,378.3c-0.1,2.5-1.6,3.9-4.4,3.8c-2.6-0.1-4-1.4-3.9-4c0-2.6,1-4.4,4.1-4.4
		C143.4,373.7,144.5,375.4,144.6,378.3z"/>
	<path class="st1" d="M177.3,6.7c2.6,0.2,4.5,1.1,4.6,4.1c0.1,3-1.7,4.2-4.3,4.3c-2.5,0.1-4.2-1.3-4.4-3.8
		C173,8.5,174.6,7,177.3,6.7z"/>
	<path class="st1" d="M154.5,422.1c-2.6-0.1-4.3-1.2-4.4-3.9c0-2.7,1.2-4.3,4.2-4.4c3,0,4.2,1.6,4.2,4.3
		C158.4,420.8,156.8,422,154.5,422.1z"/>
	<path class="st1" d="M224.7,90.9c-2.4-0.5-4.5-1.3-4.4-4.3c0-3,2-4,4.6-4.1c2.6,0,4.4,1.1,4.4,4.1
		C229.2,89.8,227.3,90.6,224.7,90.9z"/>
	<path class="st1" d="M47.4,285.1c2,0,3.4,1.5,3.5,4.3c0,2.6-1.4,4-3.9,4.1c-2.7,0.1-4.5-0.9-4.5-4
		C42.4,286.7,43.7,285.2,47.4,285.1z"/>
	<path class="st1" d="M338.2,455.4c-3.5-0.2-5.1-1.5-5-4.4c0.1-3,2-4,4.6-4c2.6,0,4,1.6,4,4.1C341.8,453.8,340.3,455.4,338.2,455.4z
		"/>
	<path class="st1" d="M452,333.2c2.2,0,3.4,1.8,3.4,4.4c0,2.9-1.8,4.3-4.4,4.2c-2.5-0.1-4-1.6-3.9-4.2
		C447.1,335,448.2,333.2,452,333.2z"/>
	<path class="st1" d="M331.5,366.2c1.6,0,3.4,1.1,3.4,3.7c0,2.6-1.3,4.4-4.2,4.4c-2.8,0-4.3-1.4-4.3-4.3
		C326.3,367.3,328.1,366.3,331.5,366.2z"/>
	<path class="st1" d="M134.9,130.7c-0.3,2.7-1.7,4.3-4.5,4.2c-2.8-0.1-4.1-1.9-4-4.6c0.1-2.5,1.8-4,4.2-3.9
		C133.2,126.4,134.8,127.9,134.9,130.7z"/>
	<path class="st1" d="M367.9,173.7c2.7,0.4,4.3,1.8,4.1,4.6c-0.2,2.5-1.4,3.9-4.1,3.9c-3.1,0-4.1-1.9-4-4.4
		C363.9,175.4,365.3,173.9,367.9,173.7z"/>
	<path class="st1" d="M37.4,188.8c-2.9-0.2-3.8-2.1-3.8-4.7c0.1-2.5,1.4-4.1,4-4c2.8,0.1,4.3,1.7,4.2,4.4
		C41.8,187.2,40.3,188.8,37.4,188.8z"/>
	<path class="st1" d="M420.6,283.1c2.7,0.6,4.6,1.5,4.4,4.6c-0.2,2.7-2,3.8-4.2,3.9c-2.8,0.1-4.2-1.7-4.1-4.5
		C416.7,284.4,418.6,283.5,420.6,283.1z"/>
	<path class="st1" d="M113.5,56.3c2.4,0,4.3,0.8,4.4,3.6c0.1,2.8-1.1,4.4-4,4.5c-2.9,0.1-4.4-1.2-4.4-4.1
		C109.4,57.6,110.9,56.4,113.5,56.3z"/>
	<path class="st1" d="M434.8,216.7c3.9,0.1,5.3,1.6,5.2,4.4c-0.1,3-1.9,4-4.6,3.9c-2.6-0.1-3.8-1.5-3.8-4.1
		C431.6,218,433.1,216.8,434.8,216.7z"/>
	<path class="st1" d="M198,403.5c0,2.8-1.7,3.8-4.4,3.8c-3.1-0.1-3.9-2-3.8-4.6c0.1-2.7,1.6-3.8,4.2-3.8
		C196.9,398.9,198.2,400.5,198,403.5z"/>
	<path class="st1" d="M289.2,42.5c2.9-0.2,4.2,1.3,4.3,4.1c0,2.5-1.1,4.1-3.7,4.3c-2.7,0.1-4.5-1.1-4.6-3.9
		C285,44.3,286.1,42.5,289.2,42.5z"/>
	<path class="st1" d="M315.1,132.4c-2.5,0.1-4.2-0.9-4.2-3.6c0-2.5,0.7-4.6,3.8-4.7c3-0.1,4.2,1.7,4.3,4.3
		C319,130.8,317.7,132.4,315.1,132.4z"/>
	<path class="st1" d="M282.7,77.3c-2.8,0.2-4.5-1-4.5-3.9c0-2.6,1.2-4.3,4.2-4.4c3.1-0.1,4.1,1.7,4.2,4.3
		C286.6,75.8,285.5,77.4,282.7,77.3z"/>
	<path class="st1" d="M185.7,121.3c2,0.4,4.3,0.6,4.3,3.6c0,3.1-2,4.4-4.8,4.7c-2.6,0.3-3.4-1.3-3.5-3.6
		C181.5,123.1,182.7,121.5,185.7,121.3z"/>
	<path class="st1" d="M139.3,29.2c-3.2,0.2-4.6-1.2-4.6-4.1c0-2.5,1.2-4.1,3.8-4.2c2.6,0,4.4,0.9,4.5,4
		C143.1,27.8,141.9,29.3,139.3,29.2z"/>
	<path class="st0" d="M383.3,407.3c-4.7,0-9.3-0.1-14,0c-2.5,0.1-3.6-0.8-3.5-3.5c0.1-5.3,0.1-10.6,0-16c-0.1-2.7,1.1-3.6,3.6-3.4
		c1.2,0.1,2.3,0,3.5-0.2c11.2-1.7,15.8-6.9,16.7-18.7c0.2-2-0.8-5,2.3-5.2c3.2-0.2,3.7,2.8,4.2,5.3c0.3,1.6,0,3.3,0.3,5
		c0.7,4.5,2.7,7.9,7.8,8.1c3.6,0.1,4.9,2.1,5.1,5.4c0.4,4.9,0,9.6-1.2,14.3c-1.4,5.4-5.2,8.5-10.8,8.7
		C392.6,407.4,388,407.2,383.3,407.3C383.3,407.2,383.3,407.3,383.3,407.3z M402.1,384.5c-7.6,2.1-11.7,12.5-21.9,6.3
		c1.4,4.3,4.3,5.8,6.4,8c0.8,0.9,2.1,0.3,2.7-0.4C393.2,393.5,398.8,390.3,402.1,384.5z"/>
	<path class="st1" d="M87.5,92.9c-0.1-4,1.1-5.5,3.8-5.5c2.6,0,4.5,1,4.5,4c0,2.7-1.4,4.3-4.2,4.4C88.7,95.9,87.5,94.3,87.5,92.9z"
		/>
	<path class="st1" d="M87.6,384.1c0-2.6,1.7-3.7,4.5-3.5c3,0.2,3.9,2.2,3.7,4.8c-0.2,2.6-2.1,3.8-4.4,3.7
		C88.6,389.1,87.3,387.3,87.6,384.1z"/>
	<path class="st1" d="M389.2,91.4c-0.4,2.4-1.3,4.3-4.3,4.3c-2.8,0-4.3-1.5-4.3-4.2c-0.1-2.6,1.3-3.9,3.9-4
		C387.3,87.4,388.8,88.6,389.2,91.4z"/>
</g>
<g id="图层_2_1_">
	<g>
		<path class="st2" d="M335.4,141H141v194.5h194.5V141z"/>
		<path class="st3" d="M271,213.5c-0.8-9.5-4.3-17.7-9.7-24.7c-15.1-19.9-43.4-28.2-68.5-20c-18.2,5.9-31.9,17.3-37.4,36.4
			c-5.9,20.4,2.1,40.5,20.8,53.6c2.9,2.1,3.3,3.9,2.4,7c-1.1,4.3-2,9-3.1,14c6.2-3.9,11.5-7.4,16.9-10.5c1.5-1,3.9-1.1,5.9-1
			c5.6,0.6,11.1,1.4,17.3,2.1c-1.4-16.5,3.7-29.7,15-40.6C241.6,219.1,255.3,214.3,271,213.5z M191.3,213.9c-3.9,0-7-3.3-6.8-7.2
			c0.2-3.9,3.5-7,7.4-6.8c3.9,0,7.2,3.5,7,7.2C198.8,211,195.4,213.9,191.3,213.9z M236.6,199.9c3.9-0.2,7,2.9,7.2,7
			c0,4.1-2.9,7.2-7,7.2c-3.9,0-7.2-3.1-7.2-7C229.4,203.1,232.7,199.9,236.6,199.9z"/>
		<path class="st3" d="M313.4,238.1c-15.7-20.2-48.4-25.1-70.6-10.5c-24.9,16.4-28,47-6.4,67.1c11.5,10.5,25.2,14.8,40.6,13.2
			c5-0.4,10.1-3.3,15-2.7c4.9,0.6,9.4,3.9,14.4,6c-0.4-1.4-0.4-2.5-1.1-3.7c-3.1-5.6-1.4-9.1,3.5-13.4
			C325.5,279.2,327,255.9,313.4,238.1z M255.6,250.8c0,3.1-2.7,5.6-5.9,5.6c-3.1,0-5.9-2.5-5.9-5.6c-0.2-3.3,2.5-6,5.9-6
			C253.1,244.8,255.9,247.5,255.6,250.8z M291.9,250.8c-0.2,3.3-2.7,5.6-5.9,5.6c-3.1,0-5.9-2.7-5.6-6c0.2-3.1,2.7-5.6,5.9-5.6
			C289.5,244.8,292,247.7,291.9,250.8z"/>
	</g>
</g>
</svg>
