<?xml version="1.0" encoding="utf-8"?>
<!-- Generator: Adobe Illustrator 22.1.0, SVG Export Plug-In . SVG Version: 6.00 Build 0)  -->
<svg version="1.1" id="图层_1" xmlns="http://www.w3.org/2000/svg" xmlns:xlink="http://www.w3.org/1999/xlink" x="0px" y="0px"
	 viewBox="0 0 612 612" style="enable-background:new 0 0 612 612;" xml:space="preserve">
<style type="text/css">
	.st0{fill:none;}
	.st1{fill:#2DC100;}
	.st2{fill:#FFFFFF;}
</style>
<g>
	<rect x="134.3" y="89.6" class="st0" width="14.9" height="14.9"/>
	<polygon class="st0" points="492.6,462.7 492.6,477.7 507.5,477.7 507.5,447.8 522.4,447.8 522.4,418 537.4,418 537.4,403 
		522.4,403 522.4,388.1 507.5,388.1 507.5,403 492.6,403 492.6,418 507.5,418 507.5,432.9 492.6,432.9 492.6,447.8 477.7,447.8 
		477.7,462.7 	"/>
	<rect x="89.6" y="432.9" class="st0" width="14.9" height="14.9"/>
	<polygon class="st0" points="134.3,134.3 134.3,149.3 149.3,149.3 149.3,164.2 194,164.2 194,149.3 164.2,149.3 164.2,134.3 	"/>
	<rect x="89.6" y="462.7" class="st0" width="14.9" height="14.9"/>
	<polygon class="st0" points="238.8,253.8 238.8,268.7 223.9,268.7 223.9,283.6 268.7,283.6 268.7,268.7 253.8,268.7 253.8,253.8 
		268.7,253.8 268.7,238.8 223.9,238.8 223.9,253.8 	"/>
	<polygon class="st0" points="104.5,388.1 104.5,373.2 59.7,373.2 59.7,388.1 44.8,388.1 44.8,403 74.6,403 74.6,388.1 	"/>
	<rect x="194" y="134.3" class="st0" width="14.9" height="14.9"/>
	<polygon class="st0" points="149.3,298.5 164.2,298.5 164.2,283.6 134.3,283.6 134.3,298.5 119.4,298.5 119.4,313.5 134.3,313.5 
		134.3,328.4 149.3,328.4 	"/>
	<rect x="209" y="358.2" class="st0" width="14.9" height="14.9"/>
	<polygon class="st0" points="119.4,298.5 119.4,268.7 104.5,268.7 104.5,283.6 89.6,283.6 89.6,298.5 104.5,298.5 	"/>
	<rect x="164.2" y="209" class="st0" width="14.9" height="14.9"/>
	<rect x="149.3" y="537.4" class="st0" width="14.9" height="14.9"/>
	<rect x="89.6" y="194" class="st0" width="14.9" height="14.9"/>
	<polygon class="st0" points="119.4,358.2 119.4,343.3 134.3,343.3 134.3,328.4 119.4,328.4 104.5,328.4 104.5,343.3 89.6,343.3 
		89.6,358.2 	"/>
	<polygon class="st0" points="149.3,238.8 149.3,268.7 164.2,268.7 164.2,283.6 179.1,283.6 179.1,298.5 164.2,298.5 164.2,313.5 
		179.1,313.5 179.1,328.4 164.2,328.4 164.2,358.2 119.4,358.2 119.4,373.2 134.3,373.2 134.3,388.1 149.3,388.1 149.3,373.2 
		194,373.2 194,358.2 179.1,358.2 179.1,343.3 209,343.3 209,328.4 194,328.4 194,268.7 179.1,268.7 179.1,253.8 194,253.8 
		194,238.8 164.2,238.8 164.2,223.9 149.3,223.9 149.3,209 164.2,209 164.2,179.1 149.3,179.1 149.3,194 134.3,194 134.3,223.9 
		89.6,223.9 89.6,238.8 	"/>
	<rect x="492.6" y="179.1" class="st0" width="14.9" height="14.9"/>
	<rect x="89.6" y="313.5" class="st0" width="14.9" height="14.9"/>
	<rect x="164.2" y="522.4" class="st0" width="29.9" height="14.9"/>
	<rect x="59.7" y="418" class="st0" width="14.9" height="14.9"/>
	<rect x="59.7" y="462.7" class="st0" width="14.9" height="14.9"/>
	<rect x="507.5" y="194" class="st0" width="14.9" height="14.9"/>
	<polygon class="st0" points="522.4,358.2 537.4,358.2 537.4,343.3 522.4,343.3 522.4,328.4 507.5,328.4 507.5,343.3 492.6,343.3 
		492.6,358.2 507.5,358.2 507.5,373.2 522.4,373.2 	"/>
	<polygon class="st0" points="89.6,283.6 89.6,268.7 104.5,268.7 104.5,253.8 59.7,253.8 59.7,283.6 	"/>
	<rect x="44.8" y="223.9" class="st0" width="14.9" height="14.9"/>
	<rect x="59.7" y="298.5" class="st0" width="29.9" height="14.9"/>
	<rect x="522.4" y="373.2" class="st0" width="14.9" height="14.9"/>
	<rect x="462.7" y="328.4" class="st0" width="14.9" height="29.9"/>
	<rect x="74.6" y="403" class="st0" width="29.9" height="14.9"/>
	<polygon class="st0" points="373.2,119.4 373.2,134.3 388.1,134.3 388.1,89.6 373.2,89.6 373.2,104.5 358.2,104.5 358.2,119.4 	"/>
	<rect x="418" y="119.4" class="st0" width="14.9" height="14.9"/>
	<rect x="403" y="313.5" class="st0" width="14.9" height="14.9"/>
	<rect x="298.5" y="418" class="st0" width="14.9" height="14.9"/>
	<polygon class="st0" points="403,134.3 388.1,134.3 388.1,149.3 373.2,149.3 373.2,134.3 343.3,134.3 343.3,164.2 403,164.2 
		403,149.3 418,149.3 418,134.3 	"/>
	<polygon class="st0" points="179.1,418 179.1,403 164.2,403 164.2,388.1 149.3,388.1 149.3,418 134.3,418 134.3,432.9 119.4,432.9 
		119.4,447.8 104.5,447.8 104.5,462.7 119.4,462.7 119.4,477.7 134.3,477.7 134.3,447.8 164.2,447.8 164.2,462.7 149.3,462.7 
		149.3,477.7 164.2,477.7 164.2,507.5 179.1,507.5 179.1,432.9 194,432.9 194,418 	"/>
	<path class="st0" d="M313.5,313.5v-14.9h-59.7v44.8h-14.9v14.9h14.9V403h-14.9v-29.9h-14.9v14.9H209V403h14.9v29.9H194v44.8H209
		v-29.9h14.9v14.9h14.9V418h29.9v14.9h-14.9v44.8h59.7v-14.9h14.9v-29.9h-14.9v14.9h-29.9v14.9h-14.9v-14.9h14.9V418h14.9V403h-14.9
		v-14.9h14.9V403h14.9v-29.9h14.9v14.9h14.9v-14.9v-14.9h-44.8v14.9h-29.9v-14.9h14.9v-14.9h29.9v-14.9h29.9v-14.9H313.5z
		 M298.5,328.4h-29.9v-14.9h29.9V328.4z"/>
	<polygon class="st0" points="403,194 403,179.1 373.2,179.1 373.2,209 388.1,209 388.1,194 	"/>
	<rect x="373.2" y="238.8" class="st0" width="14.9" height="14.9"/>
	<rect x="418" y="179.1" class="st0" width="14.9" height="14.9"/>
	<rect x="418" y="149.3" class="st0" width="14.9" height="14.9"/>
	<rect x="358.2" y="74.6" class="st0" width="14.9" height="14.9"/>
	<rect x="298.5" y="134.3" class="st0" width="29.9" height="14.9"/>
	<rect x="179.1" y="388.1" class="st0" width="14.9" height="14.9"/>
	<rect x="343.3" y="179.1" class="st0" width="14.9" height="14.9"/>
	<rect x="313.5" y="283.6" class="st0" width="14.9" height="14.9"/>
	<rect x="283.6" y="253.8" class="st0" width="14.9" height="14.9"/>
	<rect x="328.4" y="104.5" class="st0" width="14.9" height="29.9"/>
	<polygon class="st0" points="238.8,298.5 223.9,298.5 223.9,283.6 209,283.6 209,298.5 209,313.5 223.9,313.5 223.9,328.4 
		223.9,343.3 238.8,343.3 	"/>
	<polygon class="st0" points="298.5,238.8 298.5,253.8 313.5,253.8 313.5,268.7 328.4,268.7 328.4,283.6 343.3,283.6 343.3,268.7 
		358.2,268.7 358.2,298.5 343.3,298.5 343.3,313.5 373.2,313.5 373.2,298.5 388.1,298.5 388.1,313.5 403,313.5 403,298.5 418,298.5 
		418,283.6 403,283.6 403,253.8 388.1,253.8 388.1,268.7 373.2,268.7 373.2,253.8 343.3,253.8 343.3,238.8 358.2,238.8 358.2,209 
		343.3,209 343.3,223.9 328.4,223.9 328.4,238.8 	"/>
	<polygon class="st0" points="134.3,388.1 119.4,388.1 104.5,388.1 104.5,403 119.4,403 119.4,418 134.3,418 	"/>
	<rect x="343.3" y="89.6" class="st0" width="14.9" height="14.9"/>
	<rect x="209" y="253.8" class="st0" width="14.9" height="14.9"/>
	<rect x="403" y="89.6" class="st0" width="14.9" height="29.9"/>
	<rect x="432.9" y="89.6" class="st0" width="14.9" height="29.9"/>
	<rect x="418" y="74.6" class="st0" width="14.9" height="14.9"/>
	<rect x="194" y="373.2" class="st0" width="14.9" height="14.9"/>
	<rect x="403" y="582.1" class="st0" width="44.8" height="14.9"/>
	<rect x="552.3" y="477.7" class="st0" width="14.9" height="14.9"/>
	<rect x="418" y="462.7" class="st0" width="29.9" height="14.9"/>
	<rect x="447.8" y="492.6" class="st0" width="29.9" height="29.9"/>
	<path class="st0" d="M492.6,492.6v44.8h44.8v-44.8H492.6z M522.4,522.4h-14.9v-14.9h14.9V522.4z"/>
	<path class="st0" d="M14.9,522.4v74.6h74.6v-74.6H14.9z M74.6,582.1H29.9v-44.8h44.8V582.1z"/>
	<rect x="537.4" y="552.3" class="st0" width="14.9" height="14.9"/>
	<path class="st0" d="M89.6,89.6V14.9H14.9v74.6H89.6z M29.9,29.9h44.8v44.8H29.9V29.9z"/>
	<rect x="552.3" y="567.2" class="st0" width="14.9" height="14.9"/>
	<rect x="567.2" y="522.4" class="st0" width="14.9" height="14.9"/>
	<rect x="567.2" y="492.6" class="st0" width="14.9" height="14.9"/>
	<path class="st0" d="M522.4,14.9v74.6h74.6V14.9H522.4z M582.1,74.6h-44.8V29.9h44.8V74.6z"/>
	<path class="st0" d="M507.5,209h-14.9v14.9h-14.9V209h14.9V194h-14.9v-14.9h-14.9v-14.9h14.9v14.9h14.9v-14.9h14.9v-14.9h-44.8
		v-14.9h-29.9v14.9h14.9v14.9h-14.9v14.9h14.9V194h14.9V209h-14.9V194h-14.9V209h-44.8v29.9H403v14.9H418v14.9h14.9v74.6h-74.6v14.9
		v14.9h29.9v-14.9h44.8v14.9h-44.8v14.9H418V403h14.9v29.9H418v14.9h59.7v-14.9h14.9V418h-44.8V403h44.8v-14.9h14.9v-14.9h-29.9
		v14.9h-29.9v-14.9h14.9v-14.9h-14.9v-29.9h14.9v-14.9h-14.9v-14.9h14.9v-14.9h-14.9v-29.9h29.9v-14.9h29.9v-14.9V209z M432.9,238.8
		H418v-14.9h14.9V238.8z M462.7,238.8h-14.9v-14.9h14.9V238.8z"/>
	<polygon class="st0" points="462.7,268.7 462.7,283.6 477.7,283.6 477.7,298.5 462.7,298.5 462.7,313.5 492.6,313.5 492.6,283.6 
		507.5,283.6 507.5,268.7 	"/>
	<rect x="567.2" y="164.2" class="st0" width="14.9" height="14.9"/>
	<polygon class="st0" points="432.9,537.4 432.9,552.3 403,552.3 403,537.4 388.1,537.4 388.1,567.2 447.8,567.2 447.8,552.3 
		477.7,552.3 477.7,537.4 	"/>
	<rect x="522.4" y="313.5" class="st0" width="14.9" height="14.9"/>
	<rect x="537.4" y="358.2" class="st0" width="14.9" height="14.9"/>
	<rect x="522.4" y="447.8" class="st0" width="44.8" height="14.9"/>
	<rect x="492.6" y="313.5" class="st0" width="14.9" height="14.9"/>
	<rect x="582.1" y="149.3" class="st0" width="14.9" height="14.9"/>
	<rect x="522.4" y="149.3" class="st0" width="14.9" height="44.8"/>
	<rect x="164.2" y="567.2" class="st0" width="14.9" height="14.9"/>
	<rect x="567.2" y="134.3" class="st0" width="14.9" height="14.9"/>
	<rect x="268.7" y="492.6" class="st0" width="14.9" height="14.9"/>
	<rect x="223.9" y="537.4" class="st0" width="14.9" height="14.9"/>
	<rect x="194" y="492.6" class="st0" width="14.9" height="14.9"/>
	<rect x="223.9" y="477.7" class="st0" width="14.9" height="29.9"/>
	<rect x="209" y="507.5" class="st0" width="14.9" height="29.9"/>
	<rect x="313.5" y="477.7" class="st0" width="14.9" height="14.9"/>
	<rect x="238.8" y="507.5" class="st0" width="14.9" height="14.9"/>
	<rect x="238.8" y="552.3" class="st0" width="14.9" height="14.9"/>
	<rect x="343.3" y="328.4" class="st0" width="14.9" height="14.9"/>
	<rect x="403" y="522.4" class="st0" width="14.9" height="14.9"/>
	<rect x="388.1" y="492.6" class="st0" width="14.9" height="29.9"/>
	<rect x="343.3" y="462.7" class="st0" width="14.9" height="14.9"/>
	<rect x="418" y="507.5" class="st0" width="14.9" height="14.9"/>
	<rect x="179.1" y="582.1" class="st0" width="14.9" height="14.9"/>
	<polygon class="st0" points="388.1,462.7 403,462.7 403,447.8 388.1,447.8 388.1,432.9 373.2,432.9 373.2,418 388.1,418 388.1,403 
		373.2,403 373.2,388.1 343.3,388.1 343.3,403 328.4,403 328.4,418 358.2,418 358.2,447.8 373.2,447.8 373.2,492.6 388.1,492.6 	"/>
	<rect x="194" class="st1" width="14.9" height="14.9"/>
	<rect x="462.7" class="st1" width="14.9" height="14.9"/>
	<path class="st1" d="M507.5,0v104.5H612V0H507.5z M597.1,89.6h-74.6V14.9h74.6V89.6z"/>
	<rect x="164.2" y="14.9" class="st1" width="14.9" height="14.9"/>
	<polygon class="st1" points="298.5,14.9 328.4,14.9 328.4,29.9 343.3,29.9 343.3,14.9 373.2,14.9 373.2,0 283.6,0 283.6,14.9 
		283.6,29.9 298.5,29.9 	"/>
	<polygon class="st1" points="149.3,44.8 149.3,29.9 134.3,29.9 134.3,14.9 164.2,14.9 164.2,0 119.4,0 119.4,44.8 	"/>
	<rect x="298.5" y="29.9" class="st1" width="14.9" height="14.9"/>
	<rect x="343.3" y="29.9" class="st1" width="14.9" height="14.9"/>
	<rect x="388.1" y="29.9" class="st1" width="14.9" height="14.9"/>
	<rect x="537.4" y="29.9" class="st1" width="44.8" height="44.8"/>
	<rect x="29.9" y="29.9" class="st1" width="44.8" height="44.8"/>
	<rect x="194" y="59.7" class="st1" width="14.9" height="14.9"/>
	<polygon class="st1" points="328.4,74.6 328.4,59.7 283.6,59.7 283.6,44.8 283.6,29.9 268.7,29.9 268.7,14.9 268.7,0 253.8,0 
		253.8,14.9 223.9,14.9 223.9,29.9 194,29.9 194,44.8 268.7,44.8 268.7,59.7 238.8,59.7 238.8,74.6 253.8,74.6 253.8,89.6 
		268.7,89.6 268.7,104.5 283.6,104.5 283.6,89.6 298.5,89.6 298.5,74.6 	"/>
	<rect x="447.8" y="59.7" class="st1" width="14.9" height="14.9"/>
	<rect x="477.7" y="59.7" class="st1" width="14.9" height="14.9"/>
	<polygon class="st1" points="358.2,74.6 373.2,74.6 373.2,89.6 388.1,89.6 388.1,134.3 403,134.3 418,134.3 418,119.4 403,119.4 
		403,89.6 418,89.6 418,74.6 432.9,74.6 432.9,59.7 432.9,44.8 492.6,44.8 492.6,14.9 477.7,14.9 477.7,29.9 447.8,29.9 447.8,0 
		403,0 403,14.9 432.9,14.9 432.9,29.9 418,29.9 418,59.7 343.3,59.7 343.3,89.6 358.2,89.6 	"/>
	<rect x="432.9" y="74.6" class="st1" width="14.9" height="14.9"/>
	<path class="st1" d="M104.5,104.5V0H0v104.5H104.5z M14.9,14.9h74.6v74.6H14.9V14.9z"/>
	<rect x="179.1" y="89.6" class="st1" width="14.9" height="14.9"/>
	<rect x="209" y="89.6" class="st1" width="14.9" height="14.9"/>
	<rect x="238.8" y="89.6" class="st1" width="14.9" height="14.9"/>
	<rect x="298.5" y="89.6" class="st1" width="14.9" height="14.9"/>
	<rect x="328.4" y="89.6" class="st1" width="14.9" height="14.9"/>
	<rect x="358.2" y="89.6" class="st1" width="14.9" height="14.9"/>
	<rect x="418" y="89.6" class="st1" width="14.9" height="29.9"/>
	<rect x="477.7" y="89.6" class="st1" width="14.9" height="14.9"/>
	<rect x="29.9" y="119.4" class="st1" width="44.8" height="14.9"/>
	<rect x="89.6" y="119.4" class="st1" width="14.9" height="14.9"/>
	<polygon class="st1" points="373.2,134.3 373.2,119.4 358.2,119.4 358.2,104.5 343.3,104.5 343.3,134.3 	"/>
	<polygon class="st1" points="567.2,119.4 567.2,134.3 582.1,134.3 582.1,149.3 597.1,149.3 597.1,134.3 612,134.3 612,119.4 	"/>
	<rect x="74.6" y="134.3" class="st1" width="14.9" height="14.9"/>
	<polygon class="st1" points="194,149.3 194,134.3 209,134.3 209,149.3 223.9,149.3 223.9,119.4 179.1,119.4 179.1,134.3 
		164.2,134.3 164.2,149.3 	"/>
	<rect x="373.2" y="134.3" class="st1" width="14.9" height="14.9"/>
	<rect x="418" y="134.3" class="st1" width="14.9" height="14.9"/>
	<rect x="194" y="149.3" class="st1" width="14.9" height="14.9"/>
	<rect x="432.9" y="149.3" class="st1" width="14.9" height="14.9"/>
	<polygon class="st1" points="59.7,164.2 59.7,149.3 44.8,149.3 44.8,164.2 29.9,164.2 29.9,149.3 14.9,149.3 14.9,164.2 0,164.2 
		0,179.1 29.9,179.1 29.9,194 59.7,194 59.7,179.1 74.6,179.1 74.6,164.2 	"/>
	<rect x="238.8" y="149.3" class="st1" width="14.9" height="29.9"/>
	<rect x="462.7" y="164.2" class="st1" width="14.9" height="14.9"/>
	<polygon class="st1" points="567.2,164.2 582.1,164.2 582.1,149.3 567.2,149.3 567.2,134.3 537.4,134.3 537.4,119.4 492.6,119.4 
		492.6,134.3 477.7,134.3 477.7,104.5 462.7,104.5 462.7,89.6 447.8,89.6 447.8,119.4 432.9,119.4 432.9,134.3 462.7,134.3 
		462.7,149.3 507.5,149.3 507.5,164.2 492.6,164.2 492.6,179.1 507.5,179.1 507.5,194 522.4,194 522.4,149.3 537.4,149.3 537.4,194 
		522.4,194 522.4,209 507.5,209 507.5,223.9 507.5,238.8 522.4,238.8 522.4,223.9 537.4,223.9 552.3,223.9 552.3,194 567.2,194 
		582.1,194 582.1,179.1 567.2,179.1 	"/>
	<polygon class="st1" points="582.1,164.2 582.1,179.1 597.1,179.1 597.1,194 612,194 612,149.3 597.1,149.3 597.1,164.2 	"/>
	<polygon class="st1" points="104.5,194 104.5,179.1 74.6,179.1 74.6,209 89.6,209 89.6,194 	"/>
	<polygon class="st1" points="149.3,179.1 164.2,179.1 164.2,209 179.1,209 179.1,179.1 194,179.1 194,164.2 149.3,164.2 
		149.3,149.3 134.3,149.3 134.3,134.3 164.2,134.3 164.2,119.4 149.3,119.4 149.3,104.5 134.3,104.5 134.3,89.6 149.3,89.6 
		149.3,104.5 164.2,104.5 164.2,59.7 134.3,59.7 134.3,74.6 119.4,74.6 119.4,149.3 89.6,149.3 89.6,164.2 119.4,164.2 119.4,179.1 
		134.3,179.1 134.3,194 149.3,194 	"/>
	<rect x="209" y="179.1" class="st1" width="29.9" height="14.9"/>
	<rect x="432.9" y="179.1" class="st1" width="14.9" height="14.9"/>
	<rect x="477.7" y="179.1" class="st1" width="14.9" height="14.9"/>
	<rect x="238.8" y="194" class="st1" width="14.9" height="14.9"/>
	<rect x="268.7" y="194" class="st1" width="14.9" height="14.9"/>
	<rect x="447.8" y="194" class="st1" width="14.9" height="14.9"/>
	<rect x="492.6" y="194" class="st1" width="14.9" height="14.9"/>
	<polygon class="st1" points="134.3,223.9 134.3,194 104.5,194 104.5,209 89.6,209 89.6,223.9 	"/>
	<rect x="149.3" y="209" class="st1" width="14.9" height="14.9"/>
	<path class="st1" d="M343.3,209h14.9v29.9h-14.9v14.9h29.9v-14.9h14.9V209h-14.9v-29.9H403V194h-14.9V209h44.8V194H418v-14.9h14.9
		v-14.9H418v-14.9H403v14.9h-59.7v-29.9h-14.9v14.9h-29.9v-14.9h29.9v-29.9h-14.9v14.9h-59.7v14.9h29.9v14.9h-14.9v14.9h14.9v14.9
		h14.9v-14.9h14.9v14.9h14.9V194h-29.9V209h29.9v14.9h14.9V209z M343.3,179.1h14.9V194h-14.9V179.1z"/>
	<rect x="477.7" y="209" class="st1" width="14.9" height="14.9"/>
	<rect x="567.2" y="209" class="st1" width="14.9" height="14.9"/>
	<polygon class="st1" points="164.2,223.9 164.2,238.8 194,238.8 194,209 179.1,209 179.1,223.9 	"/>
	<rect x="223.9" y="223.9" class="st1" width="44.8" height="14.9"/>
	<rect x="418" y="223.9" class="st1" width="14.9" height="14.9"/>
	<rect x="447.8" y="223.9" class="st1" width="14.9" height="14.9"/>
	<polygon class="st1" points="597.1,223.9 582.1,223.9 582.1,238.8 552.3,238.8 552.3,253.8 582.1,253.8 582.1,268.7 597.1,268.7 
		597.1,253.8 612,253.8 612,238.8 597.1,238.8 	"/>
	<rect x="388.1" y="238.8" class="st1" width="14.9" height="14.9"/>
	<polygon class="st1" points="477.7,238.8 477.7,253.8 447.8,253.8 447.8,283.6 462.7,283.6 462.7,268.7 507.5,268.7 507.5,283.6 
		522.4,283.6 522.4,253.8 507.5,253.8 507.5,238.8 	"/>
	<polygon class="st1" points="59.7,253.8 104.5,253.8 104.5,268.7 119.4,268.7 119.4,298.5 134.3,298.5 134.3,283.6 164.2,283.6 
		164.2,268.7 149.3,268.7 149.3,238.8 89.6,238.8 89.6,223.9 59.7,223.9 59.7,238.8 44.8,238.8 44.8,223.9 59.7,223.9 59.7,209 
		29.9,209 29.9,223.9 14.9,223.9 14.9,194 0,194 0,238.8 29.9,238.8 29.9,253.8 14.9,253.8 14.9,268.7 0,268.7 0,328.4 14.9,328.4 
		14.9,283.6 59.7,283.6 	"/>
	<polygon class="st1" points="179.1,253.8 179.1,268.7 194,268.7 194,328.4 209,328.4 209,343.3 179.1,343.3 179.1,358.2 194,358.2 
		194,373.2 209,373.2 209,358.2 223.9,358.2 223.9,373.2 238.8,373.2 238.8,403 253.8,403 253.8,358.2 238.8,358.2 238.8,343.3 
		223.9,343.3 223.9,328.4 223.9,313.5 209,313.5 209,298.5 209,283.6 223.9,283.6 223.9,268.7 209,268.7 209,253.8 223.9,253.8 
		223.9,238.8 209,238.8 194,238.8 194,253.8 	"/>
	<rect x="223.9" y="253.8" class="st1" width="14.9" height="14.9"/>
	<polygon class="st1" points="253.8,253.8 253.8,268.7 268.7,268.7 268.7,283.6 223.9,283.6 223.9,298.5 238.8,298.5 238.8,343.3 
		253.8,343.3 253.8,298.5 313.5,298.5 313.5,283.6 328.4,283.6 328.4,268.7 313.5,268.7 313.5,253.8 298.5,253.8 298.5,268.7 
		283.6,268.7 283.6,253.8 298.5,253.8 298.5,238.8 328.4,238.8 328.4,223.9 283.6,223.9 283.6,238.8 268.7,238.8 268.7,253.8 	"/>
	<rect x="373.2" y="253.8" class="st1" width="14.9" height="14.9"/>
	<rect x="537.4" y="253.8" class="st1" width="14.9" height="14.9"/>
	<rect x="89.6" y="268.7" class="st1" width="14.9" height="14.9"/>
	<polygon class="st1" points="403,283.6 418,283.6 418,298.5 403,298.5 403,313.5 418,313.5 418,328.4 403,328.4 403,313.5 
		388.1,313.5 388.1,298.5 373.2,298.5 373.2,313.5 343.3,313.5 343.3,328.4 358.2,328.4 358.2,343.3 432.9,343.3 432.9,268.7 
		418,268.7 418,253.8 403,253.8 	"/>
	<rect x="59.7" y="283.6" class="st1" width="29.9" height="14.9"/>
	<rect x="164.2" y="283.6" class="st1" width="14.9" height="14.9"/>
	<rect x="462.7" y="283.6" class="st1" width="14.9" height="14.9"/>
	<rect x="492.6" y="283.6" class="st1" width="14.9" height="29.9"/>
	<rect x="552.3" y="283.6" class="st1" width="14.9" height="14.9"/>
	<rect x="29.9" y="298.5" class="st1" width="29.9" height="14.9"/>
	<polygon class="st1" points="343.3,313.5 343.3,298.5 358.2,298.5 358.2,268.7 343.3,268.7 343.3,283.6 328.4,283.6 328.4,298.5 
		313.5,298.5 313.5,313.5 	"/>
	<rect x="447.8" y="298.5" class="st1" width="14.9" height="14.9"/>
	<polygon class="st1" points="597.1,313.5 597.1,298.5 612,298.5 612,283.6 582.1,283.6 582.1,298.5 567.2,298.5 567.2,313.5 	"/>
	<rect x="59.7" y="313.5" class="st1" width="29.9" height="14.9"/>
	<polygon class="st1" points="119.4,313.5 119.4,298.5 104.5,298.5 89.6,298.5 89.6,313.5 104.5,313.5 104.5,328.4 119.4,328.4 
		134.3,328.4 134.3,313.5 	"/>
	<rect x="268.7" y="313.5" class="st1" width="29.9" height="14.9"/>
	<rect x="507.5" y="313.5" class="st1" width="14.9" height="14.9"/>
	<polygon class="st1" points="537.4,328.4 522.4,328.4 522.4,343.3 537.4,343.3 537.4,358.2 552.3,358.2 552.3,343.3 567.2,343.3 
		567.2,328.4 552.3,328.4 552.3,298.5 537.4,298.5 522.4,298.5 522.4,313.5 537.4,313.5 	"/>
	<rect x="597.1" y="313.5" class="st1" width="14.9" height="14.9"/>
	<rect x="89.6" y="328.4" class="st1" width="14.9" height="14.9"/>
	<rect x="447.8" y="328.4" class="st1" width="14.9" height="29.9"/>
	<rect y="343.3" class="st1" width="14.9" height="14.9"/>
	<polygon class="st1" points="164.2,358.2 164.2,328.4 179.1,328.4 179.1,313.5 164.2,313.5 164.2,298.5 149.3,298.5 149.3,328.4 
		134.3,328.4 134.3,343.3 119.4,343.3 119.4,358.2 	"/>
	<rect x="388.1" y="358.2" class="st1" width="44.8" height="14.9"/>
	<polygon class="st1" points="492.6,358.2 492.6,343.3 507.5,343.3 507.5,328.4 492.6,328.4 492.6,313.5 462.7,313.5 462.7,328.4 
		477.7,328.4 477.7,358.2 462.7,358.2 462.7,373.2 447.8,373.2 447.8,388.1 477.7,388.1 477.7,373.2 507.5,373.2 507.5,358.2 	"/>
	<rect x="522.4" y="358.2" class="st1" width="14.9" height="14.9"/>
	<rect x="552.3" y="358.2" class="st1" width="14.9" height="14.9"/>
	<rect x="582.1" y="343.3" class="st1" width="29.9" height="29.9"/>
	<rect x="209" y="373.2" class="st1" width="14.9" height="14.9"/>
	<rect x="507.5" y="373.2" class="st1" width="14.9" height="14.9"/>
	<polygon class="st1" points="537.4,388.1 522.4,388.1 522.4,403 537.4,403 537.4,418 522.4,418 522.4,447.8 567.2,447.8 
		567.2,432.9 597.1,432.9 597.1,418 567.2,418 567.2,403 552.3,403 552.3,388.1 552.3,373.2 537.4,373.2 	"/>
	<rect x="567.2" y="373.2" class="st1" width="14.9" height="14.9"/>
	<polygon class="st1" points="0,492.6 14.9,492.6 14.9,447.8 29.9,447.8 29.9,432.9 14.9,432.9 14.9,388.1 0,388.1 	"/>
	<rect x="74.6" y="388.1" class="st1" width="29.9" height="14.9"/>
	<polygon class="st1" points="164.2,403 179.1,403 179.1,388.1 194,388.1 194,373.2 149.3,373.2 149.3,388.1 164.2,388.1 	"/>
	<rect x="283.6" y="388.1" class="st1" width="14.9" height="14.9"/>
	<rect x="492.6" y="388.1" class="st1" width="14.9" height="14.9"/>
	<rect x="582.1" y="388.1" class="st1" width="14.9" height="14.9"/>
	<polygon class="st1" points="74.6,418 74.6,403 44.8,403 44.8,388.1 59.7,388.1 59.7,373.2 104.5,373.2 104.5,388.1 119.4,388.1 
		134.3,388.1 134.3,373.2 119.4,373.2 119.4,358.2 89.6,358.2 89.6,343.3 74.6,343.3 74.6,358.2 59.7,358.2 59.7,343.3 44.8,343.3 
		44.8,358.2 44.8,373.2 29.9,373.2 29.9,358.2 14.9,358.2 14.9,373.2 14.9,388.1 29.9,388.1 29.9,418 44.8,418 44.8,432.9 
		59.7,432.9 59.7,418 	"/>
	<rect x="134.3" y="388.1" class="st1" width="14.9" height="29.9"/>
	<rect x="447.8" y="403" class="st1" width="44.8" height="14.9"/>
	<polygon class="st1" points="223.9,432.9 223.9,403 209,403 209,388.1 194,388.1 194,403 179.1,403 179.1,418 194,418 194,432.9 	
		"/>
	<polygon class="st1" points="283.6,447.8 313.5,447.8 313.5,432.9 298.5,432.9 298.5,418 283.6,418 	"/>
	<rect x="492.6" y="418" class="st1" width="14.9" height="14.9"/>
	<rect x="477.7" y="432.9" class="st1" width="14.9" height="14.9"/>
	<rect x="268.7" y="447.8" class="st1" width="14.9" height="14.9"/>
	<rect x="567.2" y="447.8" class="st1" width="14.9" height="14.9"/>
	<path class="st1" d="M373.2,447.8h-14.9V418h-29.9V403h14.9v-14.9h-14.9v-14.9h-14.9V403h-14.9V418h14.9v14.9h14.9v29.9h-14.9v14.9
		h14.9v14.9h44.8V447.8z M343.3,477.7v-14.9h14.9v14.9H343.3z"/>
	<path class="st1" d="M522.4,462.7v-14.9h-14.9v29.9h-14.9v-14.9h-14.9v-14.9H418v-14.9h14.9V403H418v-14.9h-29.9v-14.9h-29.9v-14.9
		v-14.9h-14.9v-14.9h-29.9v14.9h-29.9v14.9h-14.9v14.9h29.9v-14.9h44.8v14.9v14.9h29.9V403h14.9V418h-14.9v14.9h14.9v14.9H403v14.9
		h-14.9v29.9H403v29.9H418v-14.9h14.9v14.9H418v14.9H403v14.9h29.9v-14.9h44.8v14.9h44.8v14.9h14.9v-14.9h14.9v14.9h14.9v14.9h-14.9
		v-14.9h-14.9V612h14.9v-14.9h44.8v-29.9H612v-14.9h-14.9v-14.9H612v-14.9h-29.9v14.9h-14.9v-14.9h14.9v-14.9h-14.9v-14.9h-14.9
		v-14.9h14.9v-14.9H522.4z M447.8,462.7v14.9H418v-14.9H447.8z M447.8,522.4v-29.9h29.9v29.9H447.8z M537.4,537.4h-44.8v-44.8h44.8
		V537.4z"/>
	<rect x="597.1" y="462.7" class="st1" width="14.9" height="14.9"/>
	<path class="st1" d="M313.5,477.7h-59.7v-44.8h14.9V418h-29.9v44.8h-14.9v-14.9H209v29.9H194v-44.8h-14.9v74.6h-14.9v-29.9h-14.9
		v-14.9h14.9v-14.9h-29.9v29.9h-14.9v-14.9h-14.9v14.9H89.6v-14.9h14.9v-14.9H89.6v-14.9h14.9v14.9h14.9v-14.9h14.9V418h-14.9V403
		h-14.9V418H74.6v14.9H59.7v14.9H44.8v14.9H29.9v29.9h14.9v-14.9h14.9v-14.9h14.9v14.9H59.7v14.9h59.7v14.9h29.9v29.9h14.9v-14.9
		H194v14.9h-29.9v14.9h-14.9V612H194v-14.9h-14.9v-14.9h-14.9v-14.9h14.9v14.9H194v-14.9H209v-14.9h14.9v-14.9H209v-29.9H194v-14.9
		H209v14.9h14.9v-29.9h14.9v29.9h14.9v14.9h-14.9v-14.9h-14.9v29.9h14.9v14.9h14.9v14.9h-14.9v14.9h29.9v14.9h-14.9V612h44.8v-14.9
		h-14.9v-14.9h14.9v-14.9h-29.9v-44.8h14.9v14.9h14.9v-29.9h14.9v14.9h14.9v-29.9h-14.9V477.7z M268.7,507.5v-14.9h14.9v14.9H268.7z
		"/>
	<polygon class="st1" points="582.1,492.6 582.1,507.5 597.1,507.5 597.1,477.7 567.2,477.7 567.2,492.6 	"/>
	<path class="st1" d="M0,507.5V612h104.5V507.5H0z M89.6,597.1H14.9v-74.6h74.6V597.1z"/>
	<rect x="507.5" y="507.5" class="st1" width="14.9" height="14.9"/>
	<rect x="29.9" y="537.4" class="st1" width="44.8" height="44.8"/>
	<polygon class="st1" points="119.4,537.4 119.4,582.1 134.3,582.1 134.3,552.3 149.3,552.3 149.3,537.4 	"/>
	<rect x="313.5" y="537.4" class="st1" width="14.9" height="14.9"/>
	<polygon class="st1" points="388.1,537.4 403,537.4 403,522.4 388.1,522.4 388.1,492.6 373.2,492.6 373.2,522.4 358.2,522.4 
		358.2,507.5 343.3,507.5 343.3,537.4 358.2,537.4 358.2,552.3 373.2,552.3 373.2,567.2 388.1,567.2 	"/>
	<rect x="223.9" y="552.3" class="st1" width="14.9" height="14.9"/>
	<polygon class="st1" points="447.8,552.3 447.8,567.2 388.1,567.2 388.1,582.1 358.2,582.1 358.2,612 447.8,612 447.8,597.1 
		403,597.1 403,582.1 447.8,582.1 447.8,597.1 462.7,597.1 462.7,582.1 477.7,582.1 477.7,552.3 	"/>
	<polygon class="st1" points="343.3,567.2 343.3,552.3 328.4,552.3 328.4,597.1 343.3,597.1 343.3,582.1 358.2,582.1 358.2,567.2 	
		"/>
	<polygon class="st1" points="492.6,567.2 492.6,612 507.5,612 507.5,597.1 522.4,597.1 522.4,567.2 507.5,567.2 	"/>
	<polygon class="st1" points="209,597.1 209,612 238.8,612 238.8,597.1 223.9,597.1 223.9,582.1 194,582.1 194,597.1 	"/>
	<rect x="462.7" y="597.1" class="st1" width="14.9" height="14.9"/>
</g>
<g id="图层_2">
	<g>
		<path class="st1" d="M418,179.1H179.1V418H418V179.1z"/>
		<path class="st2" d="M338.9,268.2c-1-11.7-5.3-21.7-11.9-30.3c-18.6-24.4-53.3-34.6-84.1-24.6c-22.4,7.2-39.2,21.3-45.9,44.7
			c-7.2,25.1,2.6,49.7,25.6,65.9c3.6,2.6,4.1,4.8,2.9,8.6c-1.4,5.3-2.4,11-3.8,17.2c7.6-4.8,14.1-9.1,20.8-12.9
			c1.9-1.2,4.8-1.4,7.2-1.2c6.9,0.7,13.6,1.7,21.3,2.6c-1.7-20.3,4.5-36.5,18.4-49.9C302.8,275.1,319.6,269.2,338.9,268.2z
			 M241,268.7c-4.8,0-8.6-4.1-8.4-8.8c0.2-4.8,4.3-8.6,9.1-8.4c4.8,0,8.8,4.3,8.6,8.8C250.1,265.1,246,268.7,241,268.7z
			 M296.6,251.5c4.8-0.2,8.6,3.6,8.8,8.6c0,5-3.6,8.8-8.6,8.8c-4.8,0-8.8-3.8-8.8-8.6C287.8,255.5,291.8,251.5,296.6,251.5z"/>
		<path class="st2" d="M391,298.5c-19.3-24.8-59.5-30.8-86.7-12.9c-30.6,20.1-34.4,57.8-7.9,82.4c14.1,12.9,31,18.2,49.9,16.2
			c6.2-0.5,12.4-4.1,18.4-3.3c6,0.7,11.5,4.8,17.7,7.4c-0.5-1.7-0.5-3.1-1.4-4.5c-3.8-6.9-1.7-11.2,4.3-16.5
			C405.8,348.9,407.7,320.3,391,298.5z M320,314.1c0,3.8-3.3,6.9-7.2,6.9c-3.8,0-7.2-3.1-7.2-6.9c-0.2-4.1,3.1-7.4,7.2-7.4
			S320.3,310,320,314.1z M364.5,314.1c-0.2,4.1-3.3,6.9-7.2,6.9c-3.8,0-7.2-3.3-6.9-7.4c0.2-3.8,3.3-6.9,7.2-6.9
			C361.6,306.7,364.7,310.2,364.5,314.1z"/>
	</g>
</g>
</svg>
