<?xml version="1.0" encoding="utf-8"?>
<!-- Generator: Adobe Illustrator 22.1.0, SVG Export Plug-In . SVG Version: 6.00 Build 0)  -->
<svg version="1.1" id="图层_1" xmlns="http://www.w3.org/2000/svg" xmlns:xlink="http://www.w3.org/1999/xlink" x="0px" y="0px"
	 viewBox="0 0 100 80.5" style="enable-background:new 0 0 100 80.5;" xml:space="preserve">
<style type="text/css">
	.st0{fill:#D52A2C;}
	.st1{fill:#FFFFFF;}
	.st2{fill:#E99315;}
</style>
<path class="st0" d="M73.3,37.5c1.6-4,2.5-9.2,0-12.1C67.7,18.9,55,25.6,49,26c2.8-8.5-0.3-17.1-10.7-14.5
	c-9.5,2.4-16.5,7.6-23.2,14.3C8.1,32.7,1,40.9,0,51.5c-1.2,12.2,6.6,18.4,14,22.6c22.3,12.6,57.9,5.6,69.7-10.8
	c1.6-2.4,3.3-6,3.6-8.7C88.7,43.2,80.3,41.3,73.3,37.5z"/>
<path class="st1" d="M39,35.5c-7.5,0.6-12.6,2.2-17.9,5.3c-4.3,2.5-9.4,6.7-10.6,12.9C7.6,67.7,22.7,74.2,33.9,75
	c12.9,0.8,25.8-3.7,31.9-10.7c2.2-2.5,4.5-6.4,4.5-10.9C70.3,39.5,52.8,34.4,39,35.5z"/>
<path d="M53.5,52c6,18-25.1,26.4-30.8,10.9C18.9,52.6,28,44.3,37.5,43.3C45.6,42.5,51.7,46.6,53.5,52z M39.2,55.1
	c1.3,2.2,4.2,0.6,3.9-1.1C42.8,52,39.2,52.3,39.2,55.1z M34.2,64.6c5.2-1.2,5.9-11.1-2-9.2C25.6,56.9,26.9,66.3,34.2,64.6z"/>
<path class="st2" d="M86.2,24c0.6,4.3-0.6,7.9-3.1,8.1c-4.1,0.3-2.6-2.8-2.8-6.4c-0.2-2.2-2-4.8-3.6-5.6c-3.2-1.5-8.1,1.1-8.1-3.4
	c0-3.3,2.9-3,4.5-3.1C80.1,13.2,85.4,18,86.2,24z"/>
<path class="st2" d="M99.9,24c0.4,5.6-0.5,12.3-4.2,12.6c-6,0.5-2.9-6.1-2.8-10.1C93.1,15,83.3,7,73.6,7c-2.7,0-9.1,1.9-8.1-3.9
	c0.4-2.5,2.6-2.5,4.8-2.8C86.5-1.9,98.8,9.3,99.9,24L99.9,24z"/>
</svg>
